<svg xmlns="http://www.w3.org/2000/svg" xmlns:xlink="http://www.w3.org/1999/xlink" width="35" height="35" viewBox="0 0 35 35"><defs><path id="xam4a" d="M1320 562.5a17.5 17.5 0 1 1 35 0 17.5 17.5 0 0 1-35 0z"/><path id="xam4b" d="M1345 567.06c0-.07 0-.14-.03-.21-.07-.21-.56-.43-.76-.53l-1.7-.95c-.25-.16-.57-.46-.88-.46-.6 0-1.5 1.8-2.03 1.8-.27 0-.62-.25-.85-.39a9.9 9.9 0 0 1-4.07-4.07c-.14-.23-.39-.58-.39-.85 0-.54 1.8-1.42 1.8-2.03 0-.3-.3-.63-.46-.88l-.95-1.7c-.1-.2-.32-.7-.53-.76-.07-.03-.14-.03-.2-.03-.36 0-1.06.16-1.39.3-.49.22-.8.77-1.05 1.22a3.8 3.8 0 0 0-.51 1.85c0 .93.38 1.76.69 2.6.21.61.48 1.2.82 1.75a16.79 16.79 0 0 0 4.77 4.77c.55.34 1.14.6 1.74.82.85.31 1.68.69 2.6.69a3.8 3.8 0 0 0 1.86-.5c.45-.26 1-.57 1.21-1.06.15-.33.31-1.03.31-1.38z"/></defs><g><g transform="translate(-1320 -545)"><use fill="#e9eff2" xlink:href="#xam4a"/></g><g transform="translate(-1320 -545)"><use fill="#b0bfc6" xlink:href="#xam4b"/></g></g></svg>