<svg xmlns="http://www.w3.org/2000/svg" xmlns:xlink="http://www.w3.org/1999/xlink" width="31" height="31" viewBox="0 0 31 31"><defs><path id="1hkla" d="M471.24 445.55c0-1.4 4.24-2.53 9.46-2.53 5.22 0 9.46 1.13 9.46 2.53 0 1.39-4.24 2.52-9.46 2.52-5.22 0-9.46-1.13-9.46-2.52z"/><path id="1hklb" d="M474 450.75c1.89.57 4.27.9 6.7.88 5.37-.04 7.88-1.33 7.88-1.33 1.02-.45 1.6-.94 1.6-1.4v-2.04-.07c-.34.57-1.16 1-1.91 1.28v1.3c0 .18-.14.32-.32.32a.32.32 0 0 1-.31-.32v-1.08l-.5.14v1.58c0 .23-.2.43-.42.43a.43.43 0 0 1-.42-.43v-1.4c-1.57.31-3.5.5-5.6.5-4.97 0-9.05-1.02-9.47-2.32l-.01.07v2.1c0 .59 1.04 1.26 2.78 1.79z"/><path id="1hklc" d="M491.97 452.36c-.34.57-1.16 1-1.91 1.28v1.3c0 .18-.14.32-.32.32a.32.32 0 0 1-.31-.32v-1.08l-.5.14v1.58c0 .23-.2.43-.42.43a.43.43 0 0 1-.42-.43v-1.4c-1.57.31-3.5.5-5.6.5-4.97 0-9.05-1.02-9.47-2.32l-.01.07v2.1c0 .59 1.04 1.26 2.78 1.79 1.89.57 4.27.9 6.7.88 5.37-.04 7.88-1.33 7.88-1.33 1.02-.45 1.6-.94 1.6-1.4v-2.04-.07z"/><path id="1hkld" d="M480.48 460.14c-2.1 0-4.02-.18-5.6-.48v1.39c0 .23-.18.43-.41.43a.43.43 0 0 1-.42-.43v-1.58l-.5-.14v1.08c0 .18-.15.32-.32.32a.32.32 0 0 1-.31-.32v-1.3c-.76-.29-1.58-.71-1.91-1.28l-.01.07v2.05c0 .45.58.94 1.6 1.39 0 0 2.51 1.29 7.88 1.33 2.43.03 4.81-.31 6.7-.88 1.74-.53 2.78-1.2 2.78-1.8v-2.09-.07c-.43 1.3-4.5 2.31-9.48 2.31z"/><path id="1hkle" d="M481.01 452.6c-2.43.06-4.81-.32-6.7-.9-.48-.14-.9-.3-1.26-.45.19 1.35 4.35 2.43 9.45 2.43 5.23 0 9.47-1.13 9.47-2.53 0-.5-.55-.96-1.48-1.35v.06c0 .48-.64 1-1.76 1.46 0 0-2.46 1.13-7.72 1.27z"/><path id="1hklf" d="M480.5 459.15c5.1 0 9.27-1.08 9.46-2.43-.37.16-.79.31-1.26.45-1.9.58-4.27.96-6.7.9-5.26-.15-7.73-1.28-7.73-1.28-1.11-.46-1.76-.98-1.76-1.46v-.06c-.93.4-1.47.86-1.47 1.35 0 1.4 4.24 2.53 9.46 2.53z"/></defs><g><g transform="translate(-466 -437)"><g/><g><g><use fill="#0ecdee" xlink:href="#1hkla"/></g><g><use fill="#0ecdee" xlink:href="#1hklb"/></g><g><use fill="#0ecdee" xlink:href="#1hklc"/></g><g><use fill="#0ecdee" xlink:href="#1hkld"/></g><g><use fill="#0ecdee" xlink:href="#1hkle"/></g><g><use fill="#0ecdee" xlink:href="#1hklf"/></g></g></g></g></svg>