<svg xmlns="http://www.w3.org/2000/svg" xmlns:xlink="http://www.w3.org/1999/xlink" width="25" height="17" viewBox="0 0 25 17"><defs><path id="7jz2a" d="M673.95 444.86v14.69c0 .46-.37.84-.83.84h-23.29a.83.83 0 0 1-.83-.84v-14.7c0-.45.37-.83.83-.83h23.29c.46 0 .83.38.83.84zm-19.42 5.6c0-1.2 1.8-1.2 1.8 0 0 .46.37.84.83.84.46 0 .83-.38.83-.84 0-1.12-.72-2.08-1.71-2.43v-.3a.83.83 0 0 0-.84-.83.83.83 0 0 0-.83.83v.29a2.58 2.58 0 0 0 .82 5.02c.5 0 .9.4.9.9 0 1.2-1.8 1.2-1.8 0a.83.83 0 0 0-.83-.83.83.83 0 0 0-.83.84c0 1.13.73 2.1 1.74 2.44v.28c0 .46.37.84.83.84.46 0 .84-.38.84-.84v-.29a2.58 2.58 0 0 0-.85-5.01.9.9 0 0 1-.9-.9zm16.1 5.2a.83.83 0 0 0-.82-.83h-6.6a.83.83 0 0 0-.83.84c0 .46.37.83.83.83h6.6c.45 0 .83-.37.83-.83zm0-3.46a.83.83 0 0 0-.82-.83h-6.6a.83.83 0 0 0-.83.83c0 .47.37.84.83.84h6.6c.45 0 .83-.37.83-.84zm0-3.46a.83.83 0 0 0-.82-.84h-6.6a.83.83 0 0 0-.83.84c0 .46.37.84.83.84h6.6c.45 0 .83-.38.83-.84z"/></defs><g><g transform="translate(-649 -444)"><g><use fill="#0ecdee" xlink:href="#7jz2a"/></g></g></g></svg>