<svg xmlns="http://www.w3.org/2000/svg" xmlns:xlink="http://www.w3.org/1999/xlink" width="31" height="31" viewBox="0 0 31 31"><defs><path id="hj21a" d="M291.75 456.32h-1.02c-.95 0-1.73-.8-1.73-1.77v-10.7c0-.97.78-1.76 1.73-1.76h18.21c.96 0 1.74.8 1.74 1.76v4.92h-16.22a2.74 2.74 0 0 0-2.71 2.76zm-1.45-9.15h19.07v-2.16H290.3zm23.68 4.36v9.88c0 .8-.63 1.44-1.4 1.44h-18.12c-.78 0-1.4-.65-1.4-1.44v-9.88c0-.8.62-1.44 1.4-1.44h18.11c.78 0 1.41.65 1.41 1.44zm-14.32 6c0 .37.3.67.66.67h1.92c.36 0 .65-.3.65-.66 0-.37-.3-.67-.65-.67h-1.92c-.36 0-.66.3-.66.67zm-4.62-4.64v1.15c0 .61.49 1.1 1.09 1.1h1.86c.6 0 1.09-.49 1.09-1.1v-1.15c0-.6-.49-1.1-1.09-1.1h-1.86c-.6 0-1.09.5-1.09 1.1zm0 4.65c0 .36.3.66.65.66h1.92c.36 0 .66-.3.66-.66 0-.37-.3-.67-.66-.67h-1.92c-.36 0-.65.3-.65.67zm8.4 2.88c0-.37-.29-.67-.65-.67h-7.1c-.36 0-.65.3-.65.67 0 .36.3.66.65.66h7.1c.36 0 .65-.3.65-.66zm4.08-2.88c0-.37-.3-.67-.66-.67h-1.92c-.36 0-.65.3-.65.67 0 .36.3.66.65.66h1.92c.36 0 .66-.3.66-.66zm4.62 0c0-.37-.3-.67-.65-.67h-1.92c-.36 0-.66.3-.66.67 0 .36.3.66.66.66h1.92c.36 0 .65-.3.65-.66z"/></defs><g><g transform="translate(-286 -437)"><g/><g><g><use fill="#0ecdee" xlink:href="#hj21a"/></g></g></g></g></svg>