<svg xmlns="http://www.w3.org/2000/svg" xmlns:xlink="http://www.w3.org/1999/xlink" width="31" height="31" viewBox="0 0 31 31"><defs><path id="mqvka" d="M828.62 452.99a8.65 8.65 0 0 1-17.27 0 8.65 8.65 0 0 1 17.27 0zm-5.06 1.86c0-.77-.24-1.37-.72-1.78a5.41 5.41 0 0 0-2.25-.97h-.04v-2.5c.68.1 1.32.35 1.9.77l.87-1.23c-.87-.6-1.8-.93-2.77-1v-.68h-.86v.67c-.86.04-1.56.31-2.1.8-.53.49-.8 1.12-.8 1.88 0 .77.23 1.35.7 1.74.46.4 1.2.71 2.2.95v2.58a4.62 4.62 0 0 1-2.3-1.15l-.97 1.15a5.79 5.79 0 0 0 3.27 1.46v.97h.86v-.96c.9-.04 1.63-.31 2.18-.8.55-.49.83-1.12.83-1.9z"/><path id="mqvkb" d="M818.76 449.91a.96.96 0 0 0-.34.75c0 .3.09.53.27.7.17.18.51.35 1 .5v-2.3c-.4.04-.7.15-.93.35z"/><path id="mqvkc" d="M821.64 454.24c-.2-.18-.56-.35-1.09-.51v2.4c.43-.05.76-.17 1.01-.37.25-.2.38-.47.38-.78 0-.3-.1-.55-.3-.74z"/><path id="mqvkd" d="M830.98 452.99a10.99 10.99 0 1 1-21.98 0 10.99 10.99 0 0 1 21.98 0zm-1.65 0a9.36 9.36 0 0 0-18.69 0 9.36 9.36 0 0 0 18.7 0z"/></defs><g><g transform="translate(-804 -437)"><g/><g><g><use fill="#0ecdee" xlink:href="#mqvka"/></g><g><use fill="#0ecdee" xlink:href="#mqvkb"/></g><g><use fill="#0ecdee" xlink:href="#mqvkc"/></g><g><use fill="#0ecdee" xlink:href="#mqvkd"/></g></g></g></g></svg>