<svg xmlns="http://www.w3.org/2000/svg" xmlns:xlink="http://www.w3.org/1999/xlink" width="60" height="60" viewBox="0 0 60 60"><defs><path id="uru9a" d="M699.79 1628.58a29.82 29.82 0 0 1-29.79-29.79 29.82 29.82 0 0 1 29.79-29.79 29.82 29.82 0 0 1 29.79 29.79 29.82 29.82 0 0 1-29.79 29.79zm0-57.56a27.8 27.8 0 0 0-27.77 27.77 27.8 27.8 0 0 0 27.77 27.77 27.8 27.8 0 0 0 27.77-27.77 27.8 27.8 0 0 0-27.77-27.77z"/><path id="uru9b" d="M712.34 1599.8h-25.09a1.01 1.01 0 0 1 0-2.02h25.09a1.01 1.01 0 0 1 0 2.02z"/><path id="uru9c" d="M699.79 1612.35c-.56 0-1.01-.46-1.01-1.01v-25.09a1.01 1.01 0 0 1 2.02 0v25.09c0 .55-.45 1-1.01 1z"/></defs><g><g transform="translate(-670 -1569)"><use fill="#0fd5f7" xlink:href="#uru9a"/></g><g transform="translate(-670 -1569)"><use fill="#0fd5f7" xlink:href="#uru9b"/></g><g transform="translate(-670 -1569)"><use fill="#0fd5f7" xlink:href="#uru9c"/></g></g></svg>