<svg xmlns="http://www.w3.org/2000/svg" xmlns:xlink="http://www.w3.org/1999/xlink" width="60" height="60" viewBox="0 0 60 60"><defs><path id="5f4ta" d="M1107 1598c0 16.54-13.46 30-30 30s-30-13.46-30-30 13.46-30 30-30 30 13.46 30 30zm-2.3 0a27.72 27.72 0 0 0-27.7-27.7 27.72 27.72 0 0 0-27.7 27.7 27.72 27.72 0 0 0 27.7 27.7 27.72 27.72 0 0 0 27.7-27.7z"/><path id="5f4tb" d="M1091.14 1585.7l-17.73 19.95-10.69-8.55a1.15 1.15 0 0 0-1.44 1.8l11.54 9.23a1.15 1.15 0 0 0 1.59-.13l18.46-20.77a1.15 1.15 0 1 0-1.73-1.53z"/></defs><g><g transform="translate(-1047 -1568)"><use fill="#0fd5f7" xlink:href="#5f4ta"/></g><g transform="translate(-1047 -1568)"><use fill="#0fd5f7" xlink:href="#5f4tb"/></g></g></svg>