<svg xmlns="http://www.w3.org/2000/svg" xmlns:xlink="http://www.w3.org/1999/xlink" width="60" height="60" viewBox="0 0 60 60"><defs><path id="1mvha" d="M354 1583.46v39.19a5.44 5.44 0 0 1-5.5 5.35h-36.54c-3.04 0-5.5-2.4-5.5-5.35v-2.51h-6.73a5.65 5.65 0 0 1-5.73-5.55v-41.04a5.65 5.65 0 0 1 5.73-5.55h38.36a5.65 5.65 0 0 1 5.72 5.55v4.6c.09-.01.17-.04.26-.04h4.42c3.04 0 5.51 2.4 5.51 5.35zm-54.27 34.43h38.36a3.4 3.4 0 0 0 3.46-3.3v-41.04a3.4 3.4 0 0 0-3.46-3.3h-38.36a3.4 3.4 0 0 0-3.47 3.3v41.04a3.4 3.4 0 0 0 3.47 3.3zm52 4.76v-39.19c0-1.71-1.45-3.1-3.24-3.1h-4.42c-.1 0-.17-.04-.26-.06v34.29a5.65 5.65 0 0 1-5.72 5.55h-29.37v2.5c0 1.72 1.45 3.11 3.24 3.11h36.53c1.8 0 3.25-1.39 3.25-3.1z"/><path id="1mvhb" d="M331.34 1580.27h-24.83a1.13 1.13 0 1 0 0 2.26h24.83a1.13 1.13 0 1 0 0-2.26z"/><path id="1mvhc" d="M331.34 1589.3h-24.83a1.13 1.13 0 1 0 0 2.26h24.83a1.13 1.13 0 1 0 0-2.26z"/><path id="1mvhd" d="M331.34 1598.33h-24.83a1.13 1.13 0 1 0 0 2.26h24.83a1.13 1.13 0 1 0 0-2.26z"/><path id="1mvhe" d="M320.05 1607.36h-13.54a1.13 1.13 0 1 0 0 2.26h13.54a1.13 1.13 0 1 0 0-2.26z"/></defs><g><g transform="translate(-294 -1568)"><use fill="#0fd5f7" xlink:href="#1mvha"/></g><g transform="translate(-294 -1568)"><use fill="#0fd5f7" xlink:href="#1mvhb"/></g><g transform="translate(-294 -1568)"><use fill="#0fd5f7" xlink:href="#1mvhc"/></g><g transform="translate(-294 -1568)"><use fill="#0fd5f7" xlink:href="#1mvhd"/></g><g transform="translate(-294 -1568)"><use fill="#0fd5f7" xlink:href="#1mvhe"/></g></g></svg>