<svg xmlns="http://www.w3.org/2000/svg" xmlns:xlink="http://www.w3.org/1999/xlink" width="71" height="72" viewBox="0 0 71 72"><defs><path id="a" d="M37.1 45.21c.2.05.31.13.31.37v1.09c0 .14-.06.21-.2.21H34.4c-1.89 0-2.22.82-2.22 3.49 0 2.67.33 3.51 2.22 3.51h2.81c.14 0 .2.07.2.21v1.11c0 .22-.11.3-.31.35-.67.14-1.49.21-2.7.21-3.5 0-4.4-1.23-4.4-5.39 0-4.15.9-5.37 4.4-5.37 1.21 0 2.03.08 2.7.21"/><path id="b" d="M39.18 50.4c0-2.69.37-3.52 2.26-3.52 1.89 0 2.26.83 2.26 3.52 0 2.66-.37 3.48-2.26 3.48-1.89 0-2.26-.82-2.26-3.48zm6.7 0c0-4.17-.94-5.4-4.44-5.4-3.49 0-4.44 1.23-4.44 5.4 0 4.14.95 5.36 4.44 5.36 3.5 0 4.44-1.22 4.44-5.36z"/><path id="c" d="M55.61 45c.13 0 .2.07.2.22v10.17c0 .15-.07.22-.2.22h-1.28c-.33 0-.49-.08-.68-.35l-4.5-6.59v6.72c0 .15-.07.22-.2.22h-1.74c-.14 0-.21-.07-.21-.22V45.22c0-.15.07-.22.21-.22h1.35c.55 0 .62.12.85.45l4.25 6.21v-6.44c0-.15.07-.22.21-.22z"/><path id="d" d="M64.09 45c.13 0 .22.07.22.21v1.46c0 .14-.09.21-.22.21h-2.87v8.51c0 .15-.07.22-.2.22h-1.74c-.14 0-.21-.07-.21-.22v-8.51h-2.86c-.14 0-.21-.07-.21-.21v-1.46c0-.14.07-.21.21-.21z"/><path id="e" d="M68.63 46.88c1.63 0 2.06.33 2.06 1.7 0 1.39-.43 1.61-2.06 1.61h-1.48v-3.31zm4.24 1.64c0-2.74-1.02-3.52-4.02-3.52-1.12 0-2.44.04-3.64.15-.17.01-.21.04-.21.19v10.13c0 .18.04.22.21.22h1.74c.16 0 .2-.04.2-.22v-3.62h1.26l2.25 3.54c.14.2.23.3.55.3h1.73c.2 0 .27-.12.16-.27l-2.33-3.7c1.55-.31 2.1-1.13 2.1-3.2z"/><path id="f" d="M76.18 50.4c0-2.69.37-3.52 2.26-3.52 1.89 0 2.26.83 2.26 3.52 0 2.66-.37 3.48-2.26 3.48-1.89 0-2.26-.82-2.26-3.48zm6.7 0c0-4.17-.94-5.4-4.44-5.4-3.49 0-4.44 1.23-4.44 5.4 0 4.14.95 5.36 4.44 5.36 3.5 0 4.44-1.22 4.44-5.36z"/><path id="g" d="M85.95 45c.13 0 .2.07.2.21v8.52h4.5c.13 0 .2.07.2.21v1.46c0 .14-.07.21-.2.21h-6.44c-.14 0-.21-.07-.21-.22V45.21c0-.14.07-.21.21-.21z"/><path id="h" d="M47.73 33.64h1.59c.68 0 1.23.01 1.67.07 1.18.17 1.58.7 1.58 2.31s-.4 2.11-1.58 2.25c-.44.06-.99.06-1.67.06h-1.59zm-.13 9.02c.09 0 .13-.03.13-.12v-3.56h2.53l.73 1.14 1.5 2.37c.08.12.13.17.3.17h.44c.11 0 .14-.08.09-.15l-2.27-3.59c1.66-.17 2.23-.77 2.23-2.92s-.59-2.77-2.29-2.94c-.46-.05-1-.06-1.63-.06-.53 0-1.49.01-2.23.05-.09 0-.13.03-.13.12v9.37c0 .09.04.12.13.12z"/><path id="i" d="M59.65 42.66c2.91 0 3.64-.97 3.64-4.86v-4.68c0-.09-.03-.12-.12-.12h-.48c-.09 0-.11.03-.11.12v4.68c0 3.37-.58 4.22-2.93 4.22s-2.94-.85-2.94-4.22v-4.68c0-.09-.02-.12-.11-.12h-.48c-.08 0-.12.03-.12.12v4.68c0 3.89.73 4.86 3.65 4.86"/><path id="j" d="M72.3 33h-.48c-.07 0-.11.04-.11.12v8.37l-5.61-8.27c-.14-.21-.22-.22-.43-.22h-.54c-.08 0-.13.04-.13.12v9.36c0 .08.05.11.13.11h.47c.07 0 .13-.03.13-.11v-8.57l5.77 8.53c.12.15.21.15.3.15h.5c.08 0 .12-.03.12-.11v-9.36c0-.08-.04-.12-.12-.12"/><path id="k" d="M51 10.28l1.8 6.35a31.18 31.18 0 0 1 8.08-1.2V9c-3.09.05-7.04.46-9.88 1.28"/><path id="l" d="M51.12 14A34.44 34.44 0 0 0 35 25.19l2.28 1.77c3.79-4.7 8.89-8.3 14.75-10.22z"/><path id="m" d="M62.64 14a33.44 33.44 0 0 1 32.39 29.01l-1.04.14a32.39 32.39 0 0 0-31.35-28.1zM31.97 59.59a32.44 32.44 0 0 0 25.04 19.77l-.17 1.04A33.5 33.5 0 0 1 31 59.99z"/><path id="n" d="M85.01 64a28.2 28.2 0 0 1-27.04 11.38 28.02 28.02 0 0 1-16.56-8.84L39 68.81a31.3 31.3 0 0 0 18.48 9.84 31.52 31.52 0 0 0 30.27-12.78z"/><path id="o" d="M84.12 25.04A30.64 30.64 0 0 0 63 16v4.76a26.16 26.16 0 0 1 23.39 16.03l4.4-1.84a30.82 30.82 0 0 0-6.67-9.91"/><path id="p" d="M50.96 14.15L50.25 12A36.9 36.9 0 0 0 25 46.97a36.6 36.6 0 0 0 3.96 16.6l2.02-1.02a34.63 34.63 0 0 1 19.98-48.4"/><path id="q" d="M85.59 58A26.14 26.14 0 0 1 63 73.32l.07 1.56a27.7 27.7 0 0 0 23.95-16.23z"/></defs><g transform="translate(-24 -9)"><use fill="#3c3c3b" xlink:href="#a"/><use fill="#3c3c3b" xlink:href="#b"/><use fill="#3c3c3b" xlink:href="#c"/><use fill="#3c3c3b" xlink:href="#d"/><use fill="#3c3c3b" xlink:href="#e"/><use fill="#3c3c3b" xlink:href="#f"/><use fill="#3c3c3b" xlink:href="#g"/><use fill="#3c3c3b" xlink:href="#h"/><use fill="#3c3c3b" xlink:href="#i"/><g><use fill="#3c3c3b" xlink:href="#j"/></g><g><use fill="#e74142" xlink:href="#k"/></g><g><use fill="#f4c22d" xlink:href="#l"/></g><g><use fill="#82bc4d" xlink:href="#m"/></g><g><use fill="#f4c22d" xlink:href="#n"/></g><g><use fill="#82bc4d" xlink:href="#o"/></g><g><use fill="#e74142" xlink:href="#p"/></g><g><use fill="#e74142" xlink:href="#q"/></g></g></svg>