<svg xmlns="http://www.w3.org/2000/svg" xmlns:xlink="http://www.w3.org/1999/xlink" width="150" height="153" viewBox="0 0 150 153"><defs><path id="a" d="M651.22 148.44c.44.12.67.29.67.79v2.35c0 .3-.14.45-.44.45h-6.02c-4.05 0-4.76 1.76-4.76 7.49s.71 7.52 4.76 7.52h6.02c.3 0 .44.15.44.44v2.38c0 .47-.23.65-.67.76-1.44.3-3.2.44-5.79.44-7.49 0-9.43-2.64-9.43-11.54 0-8.9 1.94-11.52 9.43-11.52 2.59 0 4.35.18 5.79.44"/><path id="b" d="M656.67 159.58c0-5.76.79-7.55 4.85-7.55 4.05 0 4.85 1.79 4.85 7.55 0 5.7-.8 7.46-4.85 7.46-4.06 0-4.85-1.76-4.85-7.46zm14.37 0c0-8.94-2.03-11.58-9.52-11.58s-9.52 2.64-9.52 11.58c0 8.87 2.03 11.48 9.52 11.48s9.52-2.61 9.52-11.48z"/><path id="c" d="M691.45 148c.29 0 .44.15.44.47v21.8c0 .32-.15.47-.44.47h-2.73c-.71 0-1.06-.18-1.47-.73l-9.64-14.14v14.4c0 .32-.14.47-.44.47h-3.73c-.29 0-.44-.15-.44-.47v-21.8c0-.32.15-.47.44-.47h2.91c1.17 0 1.32.26 1.82.97l9.11 13.31v-13.81c0-.32.15-.47.44-.47z"/><path id="d" d="M710.33 148c.3 0 .47.15.47.44v3.14c0 .3-.17.44-.47.44h-6.14v18.25c0 .32-.14.47-.44.47h-3.73c-.29 0-.44-.15-.44-.47v-18.25h-6.14c-.29 0-.44-.14-.44-.44v-3.14c0-.29.15-.44.44-.44z"/><path id="e" d="M719.79 152.03c3.49 0 4.4.7 4.4 3.64 0 3-.91 3.47-4.4 3.47h-3.18v-7.11zm9.07 3.52c0-5.88-2.17-7.55-8.6-7.55-2.41 0-5.23.09-7.82.32-.35.03-.44.09-.44.41v21.72c0 .38.09.47.44.47h3.73c.35 0 .44-.09.44-.47v-7.76h2.71l4.81 7.58c.3.44.5.65 1.18.65h3.7c.44 0 .59-.27.35-.59l-4.99-7.93c3.32-.65 4.49-2.41 4.49-6.85z"/><path id="f" d="M734.67 159.58c0-5.76.79-7.55 4.85-7.55 4.05 0 4.85 1.79 4.85 7.55 0 5.7-.8 7.46-4.85 7.46-4.06 0-4.85-1.76-4.85-7.46zm14.37 0c0-8.94-2.03-11.58-9.52-11.58s-9.52 2.64-9.52 11.58c0 8.87 2.03 11.48 9.52 11.48s9.52-2.61 9.52-11.48z"/><path id="g" d="M755.17 148c.3 0 .44.15.44.44v18.28h9.64c.29 0 .44.14.44.44v3.14c0 .29-.15.44-.44.44h-13.81c-.29 0-.44-.15-.44-.47v-21.83c0-.29.15-.44.44-.44z"/><path id="h" d="M675.55 122.36h3.42c1.45 0 2.63.03 3.57.17 2.55.36 3.4 1.5 3.4 4.94 0 3.46-.85 4.52-3.4 4.83-.94.12-2.12.14-3.57.14h-3.42zm-.27 19.35c.19 0 .27-.06.27-.25v-7.63h5.44l1.55 2.44 3.23 5.08c.17.25.28.36.64.36h.94c.25 0 .31-.17.2-.33l-4.86-7.69c3.55-.36 4.77-1.64 4.77-6.25s-1.27-5.95-4.92-6.32c-.98-.09-2.14-.12-3.49-.12-1.14 0-3.19.03-4.77.11-.2 0-.28.06-.28.25v20.1c0 .19.08.25.28.25z"/><path id="i" d="M698.83 141.71c6.24 0 7.8-2.08 7.8-10.41v-10.05c0-.2-.06-.25-.25-.25h-1.03c-.19 0-.25.05-.25.25v10.05c0 7.22-1.25 9.05-6.27 9.05-5.05 0-6.3-1.83-6.3-9.05v-10.05c0-.2-.06-.25-.25-.25h-1.03c-.17 0-.25.05-.25.25v10.05c0 8.33 1.55 10.41 7.83 10.41"/><path id="j" d="M727.66 121h-1.03c-.17 0-.25.08-.25.25v17.96l-12.02-17.74c-.31-.44-.47-.47-.92-.47h-1.16c-.17 0-.28.08-.28.25v20.07c0 .16.11.25.28.25h1c.16 0 .27-.09.27-.25v-18.38l12.38 18.3c.25.33.45.33.64.33h1.09c.16 0 .25-.09.25-.25v-20.07c0-.17-.09-.25-.25-.25"/><path id="k" d="M682 73.75l3.85 13.6a66.96 66.96 0 0 1 17.33-2.57V71c-6.62.1-15.08 1-21.18 2.75"/><path id="l" d="M681.56 82A73.94 73.94 0 0 0 647 105.99l4.89 3.8a67.83 67.83 0 0 1 31.61-21.91z"/><path id="m" d="M706.83 81c35.6.75 64.9 27.63 69.44 62.2l-2.22.28c-4.4-33.46-32.76-59.49-67.22-60.24zm-65.75 97.74a69.53 69.53 0 0 0 53.68 42.38l-.36 2.22A71.82 71.82 0 0 1 639 179.6z"/><path id="n" d="M753.64 188a60.4 60.4 0 0 1-57.97 24.39 60.07 60.07 0 0 1-35.51-18.95l-5.16 4.88a67.15 67.15 0 0 0 39.62 21.09 67.55 67.55 0 0 0 64.88-27.39z"/><path id="o" d="M751.28 105.38A65.73 65.73 0 0 0 706 86v10.2a56.1 56.1 0 0 1 50.13 34.36l9.44-3.94a66 66 0 0 0-14.29-21.24"/><path id="p" d="M681.65 82.61L680.12 78C648.72 88.43 626 118.1 626 152.96c0 12.8 3.06 24.9 8.49 35.6l4.34-2.19a73.58 73.58 0 0 1-7.97-33.41c0-32.72 21.32-60.56 50.79-70.35"/><path id="q" d="M756.42 176A56 56 0 0 1 708 208.83l.15 3.36a59.36 59.36 0 0 0 51.34-34.8z"/></defs><g transform="translate(-626 -71)"><use fill="#ececeb" xlink:href="#a"/><use fill="#ececeb" xlink:href="#b"/><use fill="#ececeb" xlink:href="#c"/><use fill="#ececeb" xlink:href="#d"/><use fill="#ececeb" xlink:href="#e"/><use fill="#ececeb" xlink:href="#f"/><use fill="#ececeb" xlink:href="#g"/><use fill="#c5c5c5" xlink:href="#h"/><use fill="#c5c5c5" xlink:href="#i"/><g><use fill="#c5c5c5" xlink:href="#j"/></g><g><use fill="#e74142" xlink:href="#k"/></g><g><use fill="#f4c22d" xlink:href="#l"/></g><g><use fill="#82bc4d" xlink:href="#m"/></g><g><use fill="#f4c22d" xlink:href="#n"/></g><g><use fill="#82bc4d" xlink:href="#o"/></g><g><use fill="#e74142" xlink:href="#p"/></g><g><use fill="#e74142" xlink:href="#q"/></g></g></svg>