<svg xmlns="http://www.w3.org/2000/svg" xmlns:xlink="http://www.w3.org/1999/xlink" width="81" height="81" viewBox="0 0 81 81"><defs><path id="iguva" d="M321.02 255H401v-80h-79.98z"/><path id="iguvc" d="M401 215c0 22.06-17.94 40-40 40s-40-17.94-40-40 17.94-40 40-40 40 17.94 40 40zm-5.25 0A34.8 34.8 0 0 0 361 180.25 34.8 34.8 0 0 0 326.25 215 34.8 34.8 0 0 0 361 249.75 34.8 34.8 0 0 0 395.75 215z"/><path id="iguvd" d="M373.75 201.75l-19.58 20.08-7.92-8.11c-.97-1-2.55-1-3.52 0a2.6 2.6 0 0 0 0 3.6l9.68 9.93a2.45 2.45 0 0 0 3.52 0l21.34-21.89a2.6 2.6 0 0 0 0-3.61c-.97-1-2.55-1-3.52 0z"/><clipPath id="iguvb"><use xlink:href="#iguva"/></clipPath></defs><g><g transform="translate(-321 -175)"/><g clip-path="url(#iguvb)" transform="translate(-321 -175)"><use fill="#70d414" xlink:href="#iguvc"/></g><g transform="translate(-321 -175)"><use fill="#70d414" xlink:href="#iguvd"/></g></g></svg>