<svg xmlns="http://www.w3.org/2000/svg" xmlns:xlink="http://www.w3.org/1999/xlink" width="15" height="18" viewBox="0 0 16 19"><defs><path id="ks7ha" d="M65.7 1346.83a9.2 9.2 0 0 1-3.2-2.96c.16-1.27 1.1-2.25 2.81-2.93a12.92 12.92 0 0 1 4.69-1.01c1.4 0 2.97.33 4.69 1.01 1.72.68 2.65 1.66 2.81 2.93A9.2 9.2 0 0 1 70 1348a9.1 9.1 0 0 1-4.3-1.17zm6.94-15.87c.7.71 1.05 1.62 1.05 2.72s-.35 2-1.05 2.72a3.54 3.54 0 0 1-2.64 1.07 3.54 3.54 0 0 1-2.64-1.07 3.73 3.73 0 0 1-1.05-2.72c0-1.1.35-2 1.05-2.72a3.54 3.54 0 0 1 2.64-1.08c1.05 0 1.93.36 2.64 1.08z"/></defs><g><g transform="translate(-62 -1329)"><use fill="#fff" xlink:href="#ks7ha"/></g></g></svg>