<svg xmlns="http://www.w3.org/2000/svg" xmlns:xlink="http://www.w3.org/1999/xlink" width="100" height="130" viewBox="0 0 100 130"><defs><path id="env5a" d="M681.66 844.83v114.33a7.84 7.84 0 0 1-7.83 7.83h-83a7.84 7.84 0 0 1-7.84-7.83V844.83a7.84 7.84 0 0 1 7.83-7.83h83a7.84 7.84 0 0 1 7.84 7.83zm-50.51-2.15a1.18 1.18 0 1 0 2.35 0 1.18 1.18 0 0 0-2.35 0zm3.52 117.65a2.35 2.35 0 1 0-4.7 0 2.35 2.35 0 0 0 4.7 0zm40.72-111.78h-86.14v106.89h86.14z"/><path id="env5b" d="M625.75 895.75H607V877h18.75zm-3.13-15.63h-12.5v12.5h12.5z"/><path id="env5c" d="M613.25 883.25h6.25v6.25h-6.25z"/><path id="env5d" d="M607 908.25h18.75V927H607zm3.13 15.63h12.5v-12.5h-12.5z"/><path id="env5e" d="M613.25 914.5h6.25v6.25h-6.25z"/><path id="env5f" d="M657 877v18.75h-18.75V877zm-3.13 3.13h-12.5v12.5h12.5z"/><path id="env5g" d="M644.5 883.25h6.25v6.25h-6.25z"/><path id="env5h" d="M613.25 898.88H607v6.25h9.38V902h-3.13z"/><path id="env5i" d="M628.88 905.13h6.25v6.25h-6.25z"/><path id="env5j" d="M616.38 898.88h6.25v3.13h-6.25z"/><path id="env5k" d="M635.13 914.5h-6.25v3.13h3.13v3.12h3.12v-3.13z"/><path id="env5l" d="M625.75 898.88v3.13h-3.12v3.12h6.25v-6.25z"/><path id="env5m" d="M632 889.5h3.13v6.25H632z"/><path id="env5n" d="M635.13 902v3.13h6.25v-6.25H632v3.13z"/><path id="env5o" d="M628.88 895.75h3.13v3.13h-3.13z"/><path id="env5p" d="M635.13 920.75h6.25V927h-6.25z"/><path id="env5q" d="M628.88 920.75h3.13V927h-3.13z"/><path id="env5r" d="M635.13 911.38h3.13v3.13h-3.13z"/><path id="env5s" d="M635.13 886.38v-6.25H632V877h-3.12v12.5h3.13v-3.13z"/><path id="env5t" d="M644.5 920.75h3.13V927h-3.13z"/><path id="env5u" d="M644.5 914.5h6.25v3.13h-6.25z"/><path id="env5v" d="M641.38 917.63h3.13v3.13h-3.13z"/><path id="env5w" d="M638.25 914.5h3.13v3.13h-3.13z"/><path id="env5x" d="M650.75 908.25v3.13h3.13v3.12H657v-6.25h-3.13z"/><path id="env5y" d="M653.88 917.63h-3.13v9.38H657v-6.25h-3.13z"/><path id="env5z" d="M638.25 908.25v3.13h9.38v-6.25h-6.25v3.13z"/><path id="env5A" d="M644.5 898.88v3.13h6.25v3.12H657v-6.25h-6.25z"/></defs><g><g transform="translate(-582 -837)"><g><g><use fill="#b7d3e0" xlink:href="#env5a"/></g></g><g><g><use fill="#b7d3e0" xlink:href="#env5b"/></g><g><use fill="#b7d3e0" xlink:href="#env5c"/></g><g><use fill="#b7d3e0" xlink:href="#env5d"/></g><g><use fill="#b7d3e0" xlink:href="#env5e"/></g><g><use fill="#b7d3e0" xlink:href="#env5f"/></g><g><use fill="#b7d3e0" xlink:href="#env5g"/></g><g><use fill="#b7d3e0" xlink:href="#env5h"/></g><g><use fill="#b7d3e0" xlink:href="#env5i"/></g><g><use fill="#b7d3e0" xlink:href="#env5j"/></g><g><use fill="#b7d3e0" xlink:href="#env5k"/></g><g><use fill="#b7d3e0" xlink:href="#env5l"/></g><g><use fill="#b7d3e0" xlink:href="#env5m"/></g><g><use fill="#b7d3e0" xlink:href="#env5n"/></g><g><use fill="#b7d3e0" xlink:href="#env5o"/></g><g><use fill="#b7d3e0" xlink:href="#env5p"/></g><g><use fill="#b7d3e0" xlink:href="#env5q"/></g><g><use fill="#b7d3e0" xlink:href="#env5r"/></g><g><use fill="#b7d3e0" xlink:href="#env5s"/></g><g><use fill="#b7d3e0" xlink:href="#env5t"/></g><g><use fill="#b7d3e0" xlink:href="#env5u"/></g><g><use fill="#b7d3e0" xlink:href="#env5v"/></g><g><use fill="#b7d3e0" xlink:href="#env5w"/></g><g><use fill="#b7d3e0" xlink:href="#env5x"/></g><g><use fill="#b7d3e0" xlink:href="#env5y"/></g><g><use fill="#b7d3e0" xlink:href="#env5z"/></g><g><use fill="#b7d3e0" xlink:href="#env5A"/></g></g></g></g></svg>