<svg xmlns="http://www.w3.org/2000/svg" xmlns:xlink="http://www.w3.org/1999/xlink" width="16" height="15" viewBox="0 0 16 15"><defs><path id="f8wua" d="M117.85 300.78l-5.76 6.88v4.77c0 .18-.11.35-.28.43l-3.24 1.58a.49.49 0 0 1-.47-.02.47.47 0 0 1-.22-.4v-6.36l-5.77-6.88a.47.47 0 0 1-.06-.5.48.48 0 0 1 .43-.28h15c.19 0 .36.1.44.27.08.17.05.37-.07.5zm-1.4.17h-12.94l5.22 6.24c.07.08.11.2.11.3v5.75l2.28-1.1v-4.65c0-.1.04-.22.11-.3z"/></defs><g><g transform="translate(-102 -300)"><use fill="#0ecdee" xlink:href="#f8wua"/></g></g></svg>