<svg xmlns="http://www.w3.org/2000/svg" xmlns:xlink="http://www.w3.org/1999/xlink" width="13" height="19" viewBox="0 0 13 19"><defs><path id="pjswa" d="M1109 801h9a1 1 0 0 1 1 1v15a1 1 0 0 1-1 1h-9a1 1 0 0 1-1-1v-15a1 1 0 0 1 1-1zm-2 16c0 1.1.9 2 2 2h9a2 2 0 0 0 2-2v-15a2 2 0 0 0-2-2h-9a2 2 0 0 0-2 2z"/><path id="pjswb" d="M1107 814h13v3a2 2 0 0 1-2 2h-9a2 2 0 0 1-2-2z"/><path id="pjswc" d="M1107 802c0-1.1.9-2 2-2h9a2 2 0 0 1 2 2v2h-13z"/><path id="pjswd" d="M1112 816.5a1.5 1.5 0 1 1 3 0 1.5 1.5 0 0 1-3 0z"/><path id="pjswe" d="M1113 802a.5.5 0 1 1 1 0 .5.5 0 0 1-1 0z"/></defs><g><g transform="translate(-1107 -800)"><g><use fill="#b7d3e0" xlink:href="#pjswa"/></g><g><use fill="#b7d3e0" xlink:href="#pjswb"/></g><g><use fill="#b7d3e0" xlink:href="#pjswc"/></g><g><use fill="#fff" xlink:href="#pjswd"/></g><g><use fill="#fff" xlink:href="#pjswe"/></g></g></g></svg>