<svg xmlns="http://www.w3.org/2000/svg" xmlns:xlink="http://www.w3.org/1999/xlink" viewBox="0 0 20 21"><defs><path id="xlgfa" d="M65.88 2070.36l-4.59 3.8-1.29-1.5 4.6-3.81zm14.12 2.3l-1.29 1.52-4.6-3.82 1.29-1.51zm-10-1.7c4.97 0 9 3.99 9 8.9s-4.03 8.9-9 8.9-9-3.99-9-8.9 4.03-8.9 9-8.9zm0 15.82c3.87 0 7-3.1 7-6.92a6.96 6.96 0 0 0-7-6.92c-3.87 0-7 3.1-7 6.92a6.96 6.96 0 0 0 7 6.92zm-3-10.87h6v1.77l-3.63 4.16H73v1.97h-6v-1.78l3.63-4.15H67z"/></defs><g><g transform="translate(-60 -2068)"><use fill="#8b9da6" xlink:href="#xlgfa"/></g></g></svg>