<svg xmlns="http://www.w3.org/2000/svg" width="40" height="40" viewBox="0 0 500 500">
  <title>checklist task</title>
  <g>
    <path d="M398.583,135.624a20.058,20.058,0,0,0-15.447-5.082H122.342a20.069,20.069,0,0,0-15.446,5.081,21.7,21.7,0,0,0-7.132,16.192V367.663a7.076,7.076,0,0,0,4.657,6.636,6.979,6.979,0,0,0,2.39.419,7.084,7.084,0,0,0,5.142-2.208l48.306-47.294H383.441a22.3,22.3,0,0,0,22.273-22.272V151.815A21.7,21.7,0,0,0,398.583,135.624Zm-4.869,167.32a10.284,10.284,0,0,1-10.273,10.272H158.235a7.039,7.039,0,0,0-5.135,2.215L111.764,355.9V151.815a9.7,9.7,0,0,1,3.134-7.25,8.193,8.193,0,0,1,5.513-2.113,8.884,8.884,0,0,1,.961.053l.331.037H383.441l.663-.037a8.253,8.253,0,0,1,6.476,2.06,9.7,9.7,0,0,1,3.134,7.25Z"/>
    <path d="M205.473,231.417a6,6,0,0,0-7.944,2.984l-18.288,40.3-12.6-13.272a6,6,0,0,0-8.7,8.264L175.23,287.9a7.41,7.41,0,0,0,12.122-2.038l21.1-46.5A6,6,0,0,0,205.473,231.417Z" />
    <path d="M205.473,164.486a6,6,0,0,0-7.944,2.984l-18.288,40.3-12.6-13.27a6,6,0,0,0-8.7,8.263l17.292,18.21a7.4,7.4,0,0,0,5.37,2.31,7.3,7.3,0,0,0,1.23-.1,7.4,7.4,0,0,0,5.522-4.245l21.1-46.5A6,6,0,0,0,205.473,164.486Z" />
    <path d="M343.189,189.673H235.851a6,6,0,0,0,0,12H343.189a6,6,0,1,0,0-12Z"/>
    <path d="M343.189,256.151H235.851a6,6,0,0,0,0,12H343.189a6,6,0,0,0,0-12Z"/>
  </g>
</svg>
