<svg xmlns="http://www.w3.org/2000/svg" width="40" height="40" viewBox="0 0 500 500">
  <title>personal message</title>
  <g>
    <path d="M395.668,135.624a20.063,20.063,0,0,0-15.447-5.082H119.427a20.069,20.069,0,0,0-15.446,5.081,21.7,21.7,0,0,0-7.131,16.192V367.663A7.076,7.076,0,0,0,101.5,374.3a7,7,0,0,0,2.393.42,7.087,7.087,0,0,0,5.142-2.207l48.306-47.3H380.526A22.3,22.3,0,0,0,402.8,302.944V151.815A21.7,21.7,0,0,0,395.668,135.624ZM390.8,302.944a10.284,10.284,0,0,1-10.273,10.272H155.32a7.037,7.037,0,0,0-5.134,2.215L108.85,355.9V151.815a9.7,9.7,0,0,1,3.133-7.25,8.193,8.193,0,0,1,5.513-2.113,8.884,8.884,0,0,1,.961.053l.331.037H380.526l.663-.037a8.251,8.251,0,0,1,6.476,2.06,9.7,9.7,0,0,1,3.134,7.25Z" />
    <path d="M287.443,222.3a42.3,42.3,0,1,0-75.238,0,48.889,48.889,0,0,0-32.761,45.933v12.14a11.7,11.7,0,0,0,11.691,11.69h117.37a11.708,11.708,0,0,0,11.7-11.69V268.23A48.889,48.889,0,0,0,287.443,222.3ZM249.824,172.66a30.3,30.3,0,0,1,0,60.6q-.849,0-1.691-.046a30.3,30.3,0,0,1,1.691-60.554Zm58.38,107.4H191.444V268.23a36.784,36.784,0,0,1,28.214-35.622c.141.143.289.277.431.418.226.223.452.444.682.661q.476.45.963.883c.232.207.464.413.7.614.339.289.685.568,1.032.846.232.185.461.372.7.552.375.286.756.561,1.139.834.218.155.432.316.653.467.458.314.925.613,1.4.908.152.1.3.2.455.293q.945.577,1.918,1.1c.125.068.254.128.379.194.524.276,1.05.546,1.585.8.23.11.466.209.7.314.437.2.873.394,1.316.576.267.11.537.211.806.316.417.162.834.321,1.256.47.286.1.573.194.861.288.413.136.828.267,1.246.39.3.087.594.17.893.251q.626.168,1.258.318c.3.072.6.142.906.207.428.092.858.174,1.29.252.3.055.6.111.9.159.448.072.9.131,1.352.188.287.036.574.078.863.108.5.053,1,.09,1.5.125.246.017.49.042.736.055.749.04,1.5.062,2.255.062s1.507-.022,2.255-.062c.248-.013.494-.038.74-.056.5-.035,1-.071,1.5-.124.294-.031.585-.072.877-.11.446-.056.892-.114,1.335-.185.308-.049.614-.107.921-.162.424-.078.847-.158,1.267-.248.311-.067.621-.139.931-.212q.615-.147,1.226-.311c.311-.084.619-.17.927-.26.4-.119.8-.245,1.2-.375.3-.1.607-.2.908-.305.4-.141.8-.292,1.192-.445.29-.113.582-.223.871-.342.409-.168.812-.35,1.215-.531.266-.12.535-.234.8-.36.461-.219.914-.454,1.366-.69.2-.1.4-.2.6-.305q.952-.514,1.877-1.08c.22-.134.434-.28.652-.419.4-.255.8-.51,1.2-.779.257-.176.508-.363.762-.545.345-.247.689-.494,1.026-.752.262-.2.518-.408.776-.614.32-.257.64-.516.953-.782.255-.218.506-.441.756-.664.306-.273.609-.549.907-.831.244-.231.484-.464.723-.7.137-.136.279-.264.414-.4A36.784,36.784,0,0,1,308.2,268.23Z" />
  </g>
</svg>
