<svg xmlns="http://www.w3.org/2000/svg" width="40" height="40" viewBox="0 0 500 500">
  <title>notification</title>
  <g>
    <path d="M402.754,135.623a20.059,20.059,0,0,0-15.446-5.081H126.514a20.063,20.063,0,0,0-15.447,5.082,21.7,21.7,0,0,0-7.131,16.191V367.663a7.076,7.076,0,0,0,4.656,6.636,6.994,6.994,0,0,0,2.392.419,7.084,7.084,0,0,0,5.142-2.208l48.305-47.294H387.614a22.3,22.3,0,0,0,22.271-22.272V151.815A21.7,21.7,0,0,0,402.754,135.623Zm-4.869,167.321a10.283,10.283,0,0,1-10.271,10.272H162.408a7.039,7.039,0,0,0-5.135,2.215L115.936,355.9V151.815a9.7,9.7,0,0,1,3.134-7.25,8.193,8.193,0,0,1,5.514-2.113,8.93,8.93,0,0,1,.962.053l.33.037H387.614l.664-.037a8.255,8.255,0,0,1,6.474,2.06,9.7,9.7,0,0,1,3.133,7.25Z" />
    <path d="M312.629,160.691c-.168-.016-.338-.026-.508-.028-.022,0-.043,0-.065,0-.038,0-.074.006-.113.006-.149,0-.3.011-.449.025a16.336,16.336,0,0,0-6.858,1.776l-117.144,32c-11.043.952-16.087,18.081-16.087,34.032s5.044,33.078,16.087,34.031l117.144,32a16.325,16.325,0,0,0,7.269,1.8c.051,0,.1.01.155.01.027,0,.054-.006.081-.006,19.666-.1,30.277-34.994,30.277-67.832C342.418,195.935,331.979,161.368,312.629,160.691ZM193.528,228.5c0,12.294-3.224,19.737-5.062,21.73-1.838-1.992-5.061-9.436-5.061-21.73s3.223-19.74,5.061-21.732C190.3,208.759,193.528,216.2,193.528,228.5Zm6.94-25.137,90.592-24.746c-6.153,13.174-9.366,31.833-9.366,49.883s3.213,36.707,9.366,49.881l-90.592-24.746c3.429-6.641,5.06-16.076,5.06-25.135S203.9,210,200.468,203.361ZM312.66,284.279l-3.331-.91c-6.574-4.293-15.635-22.952-15.635-54.871s9.061-50.579,15.635-54.873l3.331-.91c6.525,1.136,17.758,20.245,17.758,55.783S319.185,283.143,312.66,284.279Z"/>
  </g>
</svg>
