<svg xmlns="http://www.w3.org/2000/svg" width="40" height="40" viewBox="0 0 500 500">
  <title>numeric input</title>
  <g>
    <path d="M377.362,325.217a22.3,22.3,0,0,0,22.272-22.273V151.814a21.7,21.7,0,0,0-7.132-16.191,20.06,20.06,0,0,0-15.446-5.081H116.262a20.056,20.056,0,0,0-15.446,5.081,21.7,21.7,0,0,0-7.132,16.191V367.662a7.06,7.06,0,0,0,12.189,4.848l48.306-47.293Zm-230.34-9.786L105.684,355.9V151.814a9.694,9.694,0,0,1,3.134-7.249,8.191,8.191,0,0,1,5.513-2.113,8.654,8.654,0,0,1,.962.053l.33.037H377.362l.664-.037a8.23,8.23,0,0,1,6.474,2.06,9.691,9.691,0,0,1,3.134,7.249v151.13a10.284,10.284,0,0,1-10.272,10.273H152.156A7.039,7.039,0,0,0,147.022,315.431Z"/>
    <path d="M172.279,189.606h-.225a11.612,11.612,0,0,0-3.476.785l-13.23,4.821a4.829,4.829,0,0,0-3.14,4.485,4.56,4.56,0,0,0,6.055,4.148l7.064-2.467V258.9a5.045,5.045,0,1,0,10.09,0V192.745A3.132,3.132,0,0,0,172.279,189.606Z" />
    <path d="M255.027,253.291H231.593c10.2-12,10.427-12.446,19.846-23.434,4.709-5.381,7.96-11.884,7.96-18.948,0-12.894-10.2-21.639-22.985-21.639-10.09,0-18.724,5.718-21.976,15.248a5.851,5.851,0,0,0-.224,1.233,4.958,4.958,0,0,0,4.934,5.158c2.242,0,4.148-1.458,5.157-3.924a12.944,12.944,0,0,1,12.109-7.625c7.176,0,13.006,4.485,13.006,11.549,0,4.26-2.13,8.072-5.382,12l-28.03,33.973a5.4,5.4,0,0,0-1.681,3.251,3.243,3.243,0,0,0,3.475,3.252h37.225a5.046,5.046,0,0,0,0-10.091Z" />
    <path d="M329.479,223.915a17.454,17.454,0,0,0,7.961-9.979,16.139,16.139,0,0,0,.673-4.485c.336-10.315-8.186-19.621-20.183-20.294a22.836,22.836,0,0,0-18.275,6.952,4.785,4.785,0,0,0,0,7.063c1.906,2.019,4.709,1.794,6.951-.111a12.775,12.775,0,0,1,10.428-3.813c3.587.225,6.951,1.906,8.521,4.261,1.682,2.354,1.682,5.045,1.233,7.512a10.458,10.458,0,0,1-10.09,8.746h-3.925a4.541,4.541,0,1,0,0,9.082H316.7c7.736,0,14.127,4.484,14.127,13.454-.113,8.409-6.616,12.221-15.137,12.334-6.278,0-9.866-2.915-12.67-6.728-1.682-2.354-4.484-3.251-6.839-1.906a4.925,4.925,0,0,0-1.682,6.727,26.023,26.023,0,0,0,19.734,11.549c13.566,1.009,25.676-8.185,26.8-20.631C341.813,234.455,336.879,226.718,329.479,223.915Z" />
  </g>
</svg>
