<svg xmlns="http://www.w3.org/2000/svg" width="40" height="40" viewBox="0 0 500 500">
  <g>
    <path d="M243.164,265.532a10.044,10.044,0,0,0-9.628,10.579c.4,5.631,5.373,9.367,11,8.972s9.882-4.781,9.487-10.411A9.911,9.911,0,0,0,243.164,265.532Z" />
    <path d="M245.383,169.053C230.837,170.075,219,180.5,217.133,196.5a6.734,6.734,0,0,0,5.419,7.792,6.492,6.492,0,0,0,7.784-5.576,17.35,17.35,0,0,1,16.025-15.744c9.229-.649,18.594,5.138,19.308,15.3.517,7.352-5.255,14.673-11.692,17.012-11.782,4.6-20.279,11.169-19.213,26.341l.165,2.346a6.978,6.978,0,1,0,13.92-.978l-.007-2.357c-.048-7.384,3.25-9.659,10.3-12.2A30.4,30.4,0,0,0,279.59,197.3C278.271,178.531,262.276,167.866,245.383,169.053Z" />
    <path d="M394.208,135.624a20.055,20.055,0,0,0-15.446-5.082H117.968a20.068,20.068,0,0,0-15.447,5.081,21.7,21.7,0,0,0-7.131,16.192V367.663a7.076,7.076,0,0,0,4.656,6.636,6.988,6.988,0,0,0,2.391.419,7.086,7.086,0,0,0,5.143-2.208l48.3-47.294H379.067a22.3,22.3,0,0,0,22.273-22.272V151.815A21.7,21.7,0,0,0,394.208,135.624Zm-4.868,167.32a10.284,10.284,0,0,1-10.273,10.272H153.861a7.037,7.037,0,0,0-5.134,2.215L107.39,355.9V151.815a9.692,9.692,0,0,1,3.134-7.25,8.191,8.191,0,0,1,5.514-2.113,8.926,8.926,0,0,1,.961.053l.33.037H379.067l.664-.037a8.257,8.257,0,0,1,6.475,2.06,9.7,9.7,0,0,1,3.134,7.25Z"/>
  </g>
</svg>
