<svg xmlns="http://www.w3.org/2000/svg" width="40" height="40" viewBox="0 0 500 500">
  <title>range</title>
  <g>
    <path d="M394.88,135.623a20.066,20.066,0,0,0-15.445-5.081H118.641a20.055,20.055,0,0,0-15.446,5.081,21.7,21.7,0,0,0-7.132,16.191V367.662a7.06,7.06,0,0,0,12.189,4.848l48.306-47.293H379.741a22.3,22.3,0,0,0,22.271-22.273V151.814A21.7,21.7,0,0,0,394.88,135.623Zm-4.868,167.321a10.284,10.284,0,0,1-10.271,10.273H154.535a7.039,7.039,0,0,0-5.134,2.214L108.063,355.9V151.814a9.694,9.694,0,0,1,3.134-7.249,8.191,8.191,0,0,1,5.513-2.113,8.654,8.654,0,0,1,.962.053l.33.037H379.741l.664-.037a8.209,8.209,0,0,1,6.473,2.059,9.694,9.694,0,0,1,3.134,7.25Z"/>
    <path d="M225.429,256.171,173.56,227.147l52.133-32.775a6,6,0,0,0-6.387-10.16l-60.69,38.156a6,6,0,0,0,.263,10.316l60.691,33.96a6,6,0,1,0,5.859-10.473Z" />
    <path d="M339.46,223.7l-60.69-38.156a6,6,0,0,0-6.387,10.159l52.133,32.776L272.647,257.5a6,6,0,1,0,5.859,10.473L339.2,234.01a6,6,0,0,0,.263-10.315Z"/>
  </g>
</svg>
