<svg xmlns="http://www.w3.org/2000/svg" width="40" height="40" viewBox="0 0 500 500">
  <title>4 answer</title>
  <g>
    <path d="M379.067,325.217a22.3,22.3,0,0,0,22.272-22.273V151.814a21.7,21.7,0,0,0-7.132-16.191,20.061,20.061,0,0,0-15.446-5.081H117.967a20.067,20.067,0,0,0-15.446,5.081,21.7,21.7,0,0,0-7.132,16.191V367.662a7.06,7.06,0,0,0,12.189,4.848l48.306-47.293Zm-230.34-9.786L107.389,355.9V151.814a9.691,9.691,0,0,1,3.134-7.249,8.193,8.193,0,0,1,5.513-2.113,8.636,8.636,0,0,1,.961.053l.331.037H379.067l.663-.037a8.225,8.225,0,0,1,6.475,2.06,9.694,9.694,0,0,1,3.134,7.249v151.13a10.284,10.284,0,0,1-10.272,10.273H153.861A7.038,7.038,0,0,0,148.727,315.431Z"/>
    <path d="M229,193.219H147.749a6,6,0,1,0,0,12H229a6,6,0,0,0,0-12Z"/>
    <path d="M229,252.17H147.749a6,6,0,1,0,0,12H229a6,6,0,0,0,0-12Z"/>
    <path d="M348.979,193.219H267.728a6,6,0,0,0,0,12h81.251a6,6,0,0,0,0-12Z"/>
    <path d="M348.979,252.17H267.728a6,6,0,0,0,0,12h81.251a6,6,0,0,0,0-12Z"/>
  </g>
</svg>
