<svg xmlns="http://www.w3.org/2000/svg" width="40" height="40" viewBox="0 0 500 500">

  <g>
    <path d="M376.768,325.217a22.3,22.3,0,0,0,22.273-22.273V151.814a21.7,21.7,0,0,0-7.132-16.191,20.06,20.06,0,0,0-15.446-5.081H115.67a20.058,20.058,0,0,0-15.447,5.081,21.7,21.7,0,0,0-7.132,16.191V367.662a7.06,7.06,0,0,0,12.19,4.848l48.306-47.293Zm-230.339-9.786L105.091,355.9V151.814a9.694,9.694,0,0,1,3.134-7.249,8.193,8.193,0,0,1,5.514-2.113,8.667,8.667,0,0,1,.962.053l.33.037H376.768l.663-.037a8.228,8.228,0,0,1,6.476,2.06,9.694,9.694,0,0,1,3.134,7.249v151.13a10.285,10.285,0,0,1-10.273,10.273H151.562A7.039,7.039,0,0,0,146.429,315.431Z"/>
    <path d="M224,183.219H147.234a6.084,6.084,0,0,0-6.078,6.078v76.767a6.085,6.085,0,0,0,6.078,6.079H224a6.086,6.086,0,0,0,6.078-6.079V189.3A6.085,6.085,0,0,0,224,183.219Zm-3.922,78.924H151.156V193.219h68.923Z" />
    <path d="M344.9,183.219H268.132a6.085,6.085,0,0,0-6.079,6.078v76.767a6.086,6.086,0,0,0,6.079,6.079H344.9a6.085,6.085,0,0,0,6.077-6.079V189.3A6.084,6.084,0,0,0,344.9,183.219Zm-3.923,78.924H272.053V193.219h68.923Z" />
    <path d="M300.063,227.221,281.84,246.364a5,5,0,1,0,7.243,6.895l18.053-18.966,19.242,19.242a5,5,0,1,0,7.07-7.071l-19.416-19.415,17.7-18.591a5,5,0,1,0-7.242-6.9l-17.527,18.413-18.268-18.268a5,5,0,1,0-7.07,7.071Z" />
    <path d="M180.551,254.514a6.41,6.41,0,0,0,10.484-1.767l21.1-46.5a5,5,0,1,0-9.105-4.133l-18.9,41.649-13.624-14.347a5,5,0,1,0-7.251,6.886Z" />
  </g>
</svg>
