<svg xmlns="http://www.w3.org/2000/svg" xmlns:xlink="http://www.w3.org/1999/xlink" width="25" height="25" viewBox="0 0 25 25"><defs><path id="zrlja" d="M3679 365.5a12.5 12.5 0 1 1 25 0 12.5 12.5 0 1 1-25 0z"/><path id="zrljb" d="M3699 363.43c0-.27-.29-.38-.5-.41l-4.53-.64-2.03-4.02c-.08-.17-.23-.36-.44-.36-.2 0-.36.2-.44.36l-2.03 4.02-4.53.64c-.22.03-.5.14-.5.4 0 .16.12.31.23.43l3.28 3.12-.78 4.41-.02.18c0 .23.12.44.38.44.13 0 .25-.04.36-.1l4.05-2.09 4.05 2.08c.1.07.23.11.36.11.26 0 .37-.21.37-.44l-.01-.18-.78-4.4 3.28-3.13c.11-.12.23-.27.23-.42z"/></defs><g><g transform="translate(-3679 -353)"><g><use fill="#0fd5f7" xlink:href="#zrlja"/></g><g><use fill="#fff" xlink:href="#zrljb"/></g></g></g></svg>