<svg xmlns="http://www.w3.org/2000/svg" xmlns:xlink="http://www.w3.org/1999/xlink" width="106" height="100" viewBox="0 0 106 100"><defs><path id="a" d="M1028.03 480.73h-15.69l1.21 9.11h18.02a3.44 3.44 0 0 1 3.43 3.44v3.55c0 1.9-1.54 3.45-3.43 3.45h-99.14a3.45 3.45 0 0 1-3.43-3.45v-3.55c0-1.9 1.54-3.44 3.43-3.44h3.77a8.78 8.78 0 0 1-1.89-5.44v-20.68a7.3 7.3 0 0 1 5.17-7.02l12.42-3.84c.49-.15.82-.6.82-1.12v-4.7l-.6-.51a7.36 7.36 0 0 1-2.54-4.49l-.12-.75h-.74a4.5 4.5 0 0 1-4.49-4.51v-2.84c0-1.52.75-2.86 1.89-3.68a4.44 4.44 0 0 1-.4-1.18 5.92 5.92 0 0 1-2.18-7.94 5.92 5.92 0 0 1 2.13-7.9 5.93 5.93 0 0 1 5.07-6.5 5.92 5.92 0 0 1 4.48-2.87 6.55 6.55 0 0 1 4.73-1.42 7.24 7.24 0 0 1 8.7 0l.6-.03c1.51 0 2.97.53 4.15 1.49a5.9 5.9 0 0 1 5.87 2.83 5.93 5.93 0 0 1 5.06 6.5 5.91 5.91 0 0 1 2.13 7.9 5.9 5.9 0 0 1-2.17 7.94 4.64 4.64 0 0 1-.93 2.01 4.52 4.52 0 0 1 1.01 2.85v.82h43.66a7 7 0 0 1 6.97 6.99v31.99a7 7 0 0 1-6.97 6.99zm-79.11-42.77l-.8-5.03c-.34.2-.58.58-.58 1.01v2.84c0 .65.53 1.18 1.18 1.18zm.91-8.58l1.64.05.96-5.75c.14-.85.91-1.45 1.76-1.39l.23.03h.01a2.6 2.6 0 0 0 2.11-1.17 1.67 1.67 0 0 1 2.77 0 2.58 2.58 0 0 0 4.31 0 1.67 1.67 0 0 1 2.77 0 2.58 2.58 0 0 0 4.31 0 1.67 1.67 0 0 1 2.77 0 2.56 2.56 0 0 0 2.11 1.17h.01l.23-.03c.85-.06 1.62.54 1.76 1.39l.95 5.75 1.64-.05c.5-.13.86-.57.88-1.08l-.02-.15a1.68 1.68 0 0 1 1.11-1.73 2.55 2.55 0 0 0 1.06-4.16 1.69 1.69 0 0 1 0-2.23c.31-.34.68-.92.68-1.73a2.6 2.6 0 0 0-1.92-2.49 1.65 1.65 0 0 1-1.1-2.23 2.6 2.6 0 0 0-2.34-3.56l-.21.02a1.66 1.66 0 0 1-1.67-1.12 2.6 2.6 0 0 0-2.43-1.75c-.24 0-.5.05-.77.14-.62.21-1.31.03-1.76-.46a3.24 3.24 0 0 0-3.15-1.01c-.54.12-1.1-.03-1.5-.41a3.96 3.96 0 0 0-5.47 0c-.4.38-.96.53-1.5.41a3.22 3.22 0 0 0-3.03.86c-.31.32-.74.48-1.19.48l-.1-.01a2.6 2.6 0 0 0-2.37 1.76 1.67 1.67 0 0 1-1.88 1.09 2.6 2.6 0 0 0-2.34 3.56 1.65 1.65 0 0 1-1.1 2.23 2.6 2.6 0 0 0-1.92 2.49c0 .81.37 1.39.67 1.73.57.63.57 1.6 0 2.23a2.58 2.58 0 0 0 1.07 4.16c.72.26 1.18.97 1.11 1.73l-.02.15c.02.51.38.95.87 1.08zm30.64 3.55l-.29 1.83h.87v-.82c0-.43-.24-.81-.58-1.01zm-27.62 8.59c.16.96.65 1.83 1.39 2.45l5.69 4.76c.46.38 1.05.6 1.66.6h5.42c.32 0 .64-.07.94-.18v-7.4a6.99 6.99 0 0 1 6.97-6.99h1.9l.35-2.23a3.06 3.06 0 0 1-1.88-2.35l-.77-4.63a5.87 5.87 0 0 1-2.43-1.08 5.88 5.88 0 0 1-7.09 0 5.84 5.84 0 0 1-7.08 0c-.71.54-1.55.91-2.44 1.08l-.76 4.63a3.08 3.08 0 0 1-3.04 2.58h-.22zm-2.06 15.17a18.18 18.18 0 0 0 17.16 6.61v-10.72c-.31.05-.63.08-.94.08h-5.42a5.91 5.91 0 0 1-3.79-1.38l-1.76-1.47v1.93a4.49 4.49 0 0 1-3.17 4.31zm-13.16 27.71c0 3 2.43 5.44 5.42 5.44h16.05v-5.55h-10.74a3.45 3.45 0 0 1-3.43-3.45v-10.66a1.66 1.66 0 0 1 3.32 0v10.66c0 .06.05.11.11.11h17.71a7 7 0 0 1 6.97 7v1.89h9.08l-.01-.11v-9h-7.19a6.99 6.99 0 0 1-6.97-6.99v-7.07a21.5 21.5 0 0 1-20.53-8.94l-6.96 2.15a4 4 0 0 0-2.83 3.84zm28.44-.11h-3.65v5.55h7.3v-1.89a3.66 3.66 0 0 0-3.65-3.66zm-33.64 8.88a.11.11 0 0 0-.11.11v3.55c0 .06.05.11.11.11h99.14c.06 0 .11-.05.11-.11v-3.55a.11.11 0 0 0-.11-.11zm52.99-3.33h3.98l1.21-9.11h-5.18v9l-.01.11zm24.78 0l-2.88-21.68a1.88 1.88 0 0 0-1.86-1.64h-7.97c-.94 0-1.74.7-1.86 1.64l-2.88 21.68zm1.9-12.44h15.93a3.66 3.66 0 0 0 3.65-3.66v-31.99a3.66 3.66 0 0 0-3.65-3.66h-53.11a3.66 3.66 0 0 0-3.65 3.66v31.99a3.66 3.66 0 0 0 3.65 3.66h15.93l.2.01 1.29-9.69a5.21 5.21 0 0 1 5.15-4.53h7.97a5.21 5.21 0 0 1 5.15 4.53l1.29 9.69.2-.01z"/></defs><g transform="translate(-929 -401)"><use fill="#0fd5f7" xlink:href="#a"/></g></svg>