<svg xmlns="http://www.w3.org/2000/svg" xmlns:xlink="http://www.w3.org/1999/xlink" width="100" height="100" viewBox="0 0 100 100"><defs><path id="a" d="M377.15 422.18a1.67 1.67 0 0 0-1.38-3.03 13.62 13.62 0 0 0-3.2 2.05 1.68 1.68 0 0 0 1.1 2.93c.38 0 .77-.13 1.09-.41.72-.62 1.52-1.14 2.39-1.54z"/><path id="b" d="M382.67 420.33H386a1.66 1.66 0 1 0 0-3.33h-3.33a1.66 1.66 0 1 0 0 3.33z"/><path id="c" d="M392.67 420.33H396a1.66 1.66 0 1 0 0-3.33h-3.33a1.66 1.66 0 1 0 0 3.33z"/><path id="d" d="M386 441h-3.33a1.66 1.66 0 1 0 0 3.33H386a1.66 1.66 0 1 0 0-3.33z"/><path id="e" d="M406 441h-3.33a1.66 1.66 0 1 0 0 3.33H406a1.66 1.66 0 1 0 0-3.33z"/><path id="f" d="M396 441h-3.33a1.66 1.66 0 1 0 0 3.33H396a1.66 1.66 0 1 0 0-3.33z"/><path id="g" d="M377.15 439.95c-.87-.4-1.67-.92-2.39-1.54a1.66 1.66 0 0 0-2.35.16c-.61.7-.53 1.75.16 2.36.97.83 2.04 1.52 3.19 2.05a1.66 1.66 0 0 0 2.21-.82c.38-.84.02-1.83-.82-2.21z"/><path id="h" d="M416 441h-3.33a1.66 1.66 0 1 0 0 3.33H416a1.66 1.66 0 1 0 0-3.33z"/><path id="i" d="M446 441h-3.33a1.66 1.66 0 1 0 0 3.33H446a1.66 1.66 0 1 0 0-3.33z"/><path id="j" d="M456 441h-3.33a1.66 1.66 0 1 0 0 3.33H456a1.66 1.66 0 1 0 0-3.33z"/><path id="k" d="M426 441h-3.33a1.66 1.66 0 1 0 0 3.33H426a1.66 1.66 0 1 0 0-3.33z"/><path id="l" d="M436 441h-3.33a1.66 1.66 0 1 0 0 3.33H436a1.66 1.66 0 1 0 0-3.33z"/><path id="m" d="M377.15 489.95c-.87-.4-1.67-.92-2.39-1.54a1.66 1.66 0 0 0-2.35.16c-.61.7-.53 1.75.16 2.36.97.83 2.04 1.52 3.19 2.05a1.66 1.66 0 0 0 2.21-.82c.38-.84.02-1.83-.82-2.21z"/><path id="n" d="M396 491h-3.33a1.66 1.66 0 1 0 0 3.33H396a1.66 1.66 0 1 0 0-3.33z"/><path id="o" d="M386 491h-3.33a1.66 1.66 0 1 0 0 3.33H386a1.66 1.66 0 1 0 0-3.33z"/><path id="p" d="M426 491h-3.33a1.66 1.66 0 1 0 0 3.33H426a1.66 1.66 0 1 0 0-3.33z"/><path id="q" d="M431 492.67c0 .92.75 1.66 1.67 1.66H436a1.66 1.66 0 1 0 0-3.33h-3.33c-.92 0-1.67.75-1.67 1.67z"/><path id="r" d="M442.67 494.33H446a1.66 1.66 0 1 0 0-3.33h-3.33a1.66 1.66 0 1 0 0 3.33z"/><path id="s" d="M416 491h-3.33a1.66 1.66 0 1 0 0 3.33H416a1.66 1.66 0 1 0 0-3.33z"/><path id="t" d="M452.67 494.33H456a1.66 1.66 0 1 0 0-3.33h-3.33a1.66 1.66 0 1 0 0 3.33z"/><path id="u" d="M406 491h-3.33a1.66 1.66 0 1 0 0 3.33H406a1.66 1.66 0 1 0 0-3.33z"/><path id="v" d="M447.67 459a6.67 6.67 0 1 1-.03 13.35 6.67 6.67 0 0 1 .03-13.35zm-3.34 6.67a3.34 3.34 0 1 0 6.67-.01 3.34 3.34 0 0 0-6.67.01z"/><path id="w" d="M468 410.61v90h-88.08A11.93 11.93 0 0 1 368 488.69v-64.74c0-7.35 5.98-13.34 13.33-13.34h27.94l9.06-9.06a1.91 1.91 0 0 1 2.68 0l3.41 3.41 3.41-3.41a1.91 1.91 0 0 1 2.68 0l9.06 9.06zm-67.85 23.34h8.99l18.76-18.76a1.79 1.79 0 0 1 2.53-.02l18.78 18.78h8.98l-23.33-23.34-5.69-5.68zm29.02-15.32l-15.32 15.32h30.64zm-15.19-8.02l-23.33 23.34h4.79l26.62-26.63-2.39-2.39zm-42.65 13.34c0 5.51 4.49 10 10 10h4.6l15.51-15.51c.17-.51.55-.89 1.06-1.06l3.43-3.43h-24.6c-5.51 0-10 4.48-10 10zm93.34 33.33h-18.34a8.34 8.34 0 0 0 0 16.67h18.34zm0-19.99h-83.34c-.48 0-.95-.03-1.42-.08l-.46-.07c-.3-.05-.61-.09-.91-.15l-.53-.14-.8-.22-.54-.2a15.44 15.44 0 0 1-1.93-.9l-.51-.31-.62-.42c-.16-.12-.32-.23-.47-.36l-.58-.47-.44-.4-.46-.47c.03.11.04.22.08.33.17.59-.02 1.17-.41 1.59v45.59c0 .96.14 1.91.41 2.82.17.59-.02 1.17-.41 1.59v3.67a8.6 8.6 0 0 0 8.59 8.59h84.75v-3.33H463a1.67 1.67 0 0 1 0-3.34h1.67v-13.33h-18.34a11.67 11.67 0 0 1 0-23.33h18.34v-10H463a1.67 1.67 0 0 1 0-3.34h1.67zm0-3.34v-20H442.9l3.35 3.35.08-.02h3.34a1.66 1.66 0 0 1 0 3.33h-.1l13.33 13.34z"/><path id="x" d="M460 417h-3.33a1.66 1.66 0 1 0 0 3.33H460a1.66 1.66 0 1 0 0-3.33z"/></defs><g transform="translate(-368 -401)"><use fill="#0fd5f7" xlink:href="#a"/></g><g transform="translate(-368 -401)"><use fill="#0fd5f7" xlink:href="#b"/></g><g transform="translate(-368 -401)"><use fill="#0fd5f7" xlink:href="#c"/></g><g transform="translate(-368 -401)"><use fill="#0fd5f7" xlink:href="#d"/></g><g transform="translate(-368 -401)"><use fill="#0fd5f7" xlink:href="#e"/></g><g transform="translate(-368 -401)"><use fill="#0fd5f7" xlink:href="#f"/></g><g transform="translate(-368 -401)"><use fill="#0fd5f7" xlink:href="#g"/></g><g transform="translate(-368 -401)"><use fill="#0fd5f7" xlink:href="#h"/></g><g transform="translate(-368 -401)"><use fill="#0fd5f7" xlink:href="#i"/></g><g transform="translate(-368 -401)"><use fill="#0fd5f7" xlink:href="#j"/></g><g transform="translate(-368 -401)"><use fill="#0fd5f7" xlink:href="#k"/></g><g transform="translate(-368 -401)"><use fill="#0fd5f7" xlink:href="#l"/></g><g transform="translate(-368 -401)"><use fill="#0fd5f7" xlink:href="#m"/></g><g transform="translate(-368 -401)"><use fill="#0fd5f7" xlink:href="#n"/></g><g transform="translate(-368 -401)"><use fill="#0fd5f7" xlink:href="#o"/></g><g transform="translate(-368 -401)"><use fill="#0fd5f7" xlink:href="#p"/></g><g transform="translate(-368 -401)"><use fill="#0fd5f7" xlink:href="#q"/></g><g transform="translate(-368 -401)"><use fill="#0fd5f7" xlink:href="#r"/></g><g transform="translate(-368 -401)"><use fill="#0fd5f7" xlink:href="#s"/></g><g transform="translate(-368 -401)"><use fill="#0fd5f7" xlink:href="#t"/></g><g transform="translate(-368 -401)"><use fill="#0fd5f7" xlink:href="#u"/></g><g transform="translate(-368 -401)"><use fill="#0fd5f7" xlink:href="#v"/></g><g transform="translate(-368 -401)"><use fill="#0fd5f7" xlink:href="#w"/></g><g transform="translate(-368 -401)"><use fill="#0fd5f7" xlink:href="#x"/></g></svg>