<svg xmlns="http://www.w3.org/2000/svg" xmlns:xlink="http://www.w3.org/1999/xlink" width="59" height="72" viewBox="0 0 59 72"><defs><path id="mgpta" d="M356.23 238.32h40.3V226a16.5 16.5 0 0 0-16.52-16.44A16.5 16.5 0 0 0 363.5 226c0 .99-.8 1.79-1.8 1.79-.98 0-1.79-.8-1.79-1.79 0-11.02 9.02-20 20.1-20 11.08 0 20.1 8.98 20.1 20v12.32h3.67a5.23 5.23 0 0 1 5.23 5.2v28.28c0 2.86-2.35 5.2-5.23 5.2h-47.54a5.23 5.23 0 0 1-5.23-5.2v-28.28a5.24 5.24 0 0 1 5.23-5.2zm47.54 3.56h-47.54c-.91 0-1.65.74-1.65 1.64v28.28c0 .9.74 1.64 1.65 1.64h47.54c.9 0 1.65-.74 1.65-1.64v-28.28c0-.9-.74-1.63-1.65-1.64z"/><path id="mgptb" d="M373 257a7.01 7.01 0 0 1 14 0 7.01 7.01 0 0 1-14 0zm3.44 0a3.57 3.57 0 0 0 7.12.01 3.57 3.57 0 0 0-7.12-.01z"/><path id="mgptc" d="M359.92 226.2v13.14l3.45-.14.13-13.77z"/></defs><g><g transform="translate(-351 -206)"><use fill="#0fd5f7" xlink:href="#mgpta"/></g><g transform="translate(-351 -206)"><use fill="#0fd5f7" xlink:href="#mgptb"/></g><g transform="translate(-351 -206)"><use fill="#0fd5f7" xlink:href="#mgpta"/></g><g transform="translate(-351 -206)"><use fill="#0fd5f7" xlink:href="#mgptc"/></g><g transform="translate(-351 -206)"><use fill="#0fd5f7" xlink:href="#mgptb"/></g></g></svg>