<svg xmlns="http://www.w3.org/2000/svg" xmlns:xlink="http://www.w3.org/1999/xlink" viewBox="0 0 36 34"><defs><path id="gig7a" d="M460.1 2684.08c0-.64-.68-.9-1.18-.98l-10.59-1.55-4.75-9.68c-.19-.4-.54-.87-1.03-.87s-.84.47-1.03.87l-4.75 9.68-10.59 1.55c-.53.09-1.18.34-1.18.98 0 .38.27.74.53 1.02l7.68 7.53-1.82 10.63c-.02.15-.04.28-.04.43 0 .55.27 1.06.89 1.06.29 0 .56-.1.84-.26l9.47-5.01 9.47 5.01c.25.15.55.26.84.26.62 0 .87-.51.87-1.06 0-.15 0-.28-.02-.43l-1.82-10.63 7.66-7.53c.28-.28.55-.64.55-1.02z"/></defs><g><g transform="translate(-425 -2671)"><use fill="#fff" xlink:href="#gig7a"/></g></g></svg>