<svg xmlns="http://www.w3.org/2000/svg" xmlns:xlink="http://www.w3.org/1999/xlink" width="67" height="67" viewBox="0 0 67 67"><defs><path id="dzoia" d="M452.01 209H519v-67H452z"/><path id="dzoic" d="M519 175.5a33.54 33.54 0 0 1-33.5 33.5 33.54 33.54 0 0 1-33.5-33.5 33.54 33.54 0 0 1 33.5-33.5 33.54 33.54 0 0 1 33.5 33.5zm-4.4 0a29.14 29.14 0 0 0-29.1-29.1 29.14 29.14 0 0 0-29.1 29.1 29.14 29.14 0 0 0 29.1 29.1 29.14 29.14 0 0 0 29.1-29.1z"/><path id="dzoid" d="M496.34 164.64l-16.86 17.1-6.82-6.9a2.12 2.12 0 0 0-3.03 0 2.2 2.2 0 0 0 0 3.07l8.33 8.45a2.12 2.12 0 0 0 3.03 0l18.38-18.65a2.2 2.2 0 0 0 0-3.07 2.12 2.12 0 0 0-3.03 0z"/><clipPath id="dzoib"><use xlink:href="#dzoia"/></clipPath></defs><g><g transform="translate(-452 -142)"/><g clip-path="url(#dzoib)" transform="translate(-452 -142)"><use fill="#ccd7dd" xlink:href="#dzoic"/></g><g transform="translate(-452 -142)"><use fill="#ccd7dd" xlink:href="#dzoid"/></g></g></svg>
