<svg xmlns="http://www.w3.org/2000/svg" xmlns:xlink="http://www.w3.org/1999/xlink" width="24" height="25" viewBox="0 0 24 25"><defs><path id="hmrka" d="M1293 891.04V915h23.95v-23.96z"/><path id="hmrkc" d="M1304.98 915a12 12 0 0 1-11.98-11.98 12 12 0 0 1 11.98-11.98 12 12 0 0 1 11.98 11.98 12 12 0 0 1-11.98 11.98zm0-1.2a10.8 10.8 0 0 0 0-21.56 10.8 10.8 0 0 0 0 21.56z"/><path id="hmrkd" d="M1304.93 908.11l3.26-3.34a.6.6 0 0 0 0-.84.57.57 0 0 0-.82 0l-2.27 2.33v-8.9c0-.33-.26-.6-.58-.6a.59.59 0 0 0-.58.6v8.9l-2.27-2.34a.57.57 0 0 0-.82 0 .6.6 0 0 0 0 .84l3.26 3.35c.11.11.26.17.41.17.15 0 .3-.05.41-.17z"/><clipPath id="hmrkb"><use xlink:href="#hmrka"/></clipPath></defs><g><g transform="translate(-1293 -891)"/><g clip-path="url(#hmrkb)" transform="translate(-1293 -891)"><use fill="#667176" xlink:href="#hmrkc"/></g><g transform="translate(-1293 -891)"><use fill="#667176" xlink:href="#hmrkd"/></g></g></svg>