<svg xmlns="http://www.w3.org/2000/svg" xmlns:xlink="http://www.w3.org/1999/xlink" width="66" height="64" viewBox="0 0 66 64"><defs><path id="86i4b" d="M1182.76 201.07c-.54.12-1.08.22-1.62.31-1.42.24-2.36 1.45-2.1 2.72.13.62.53 1.14 1.07 1.48.55.34 1.26.5 1.98.38.64-.1 1.3-.23 1.93-.37 1.4-.31 2.25-1.58 1.9-2.82-.35-1.25-1.76-2.01-3.16-1.7z"/><path id="86i4c" d="M1201.78 166.2a2.71 2.71 0 0 0 3.39 1.67 2.63 2.63 0 0 0 1.7-3.34c-.22-.63-.45-1.26-.7-1.87a2.7 2.7 0 0 0-3.49-1.47 2.62 2.62 0 0 0-1.49 3.43c.21.51.4 1.04.59 1.57z"/><path id="86i4d" d="M1191.81 196.42c-.47.3-.96.58-1.46.85a2.45 2.45 0 0 0-.2 4.27c.83.55 1.96.63 2.9.12.59-.32 1.17-.66 1.74-1a2.44 2.44 0 0 0 .76-3.52 2.8 2.8 0 0 0-3.74-.72z"/><path id="86i4e" d="M1208.97 172.5c-.06-1.44-1.45-2.55-3.1-2.5-1.65.06-2.93 1.27-2.87 2.7.03.54.03 1.1.02 1.65-.02.9.48 1.7 1.27 2.18.47.28 1.03.46 1.65.47 1.65.03 3.01-1.1 3.05-2.54.02-.65.01-1.31-.02-1.97z"/><path id="86i4f" d="M1201.85 190.55a2.96 2.96 0 0 0-4.02.55c-.37.47-.75.93-1.14 1.37a2.67 2.67 0 0 0 .53 4.03c1.2.81 2.87.62 3.84-.47.47-.52.93-1.07 1.37-1.63.95-1.21.69-2.94-.58-3.85z"/><path id="86i4a" d="M1206.89 142.09H1144v63.73h62.89V142.1z"/><path id="86i4h" d="M1205.08 180.53a2.58 2.58 0 0 0-3.24 1.69c-.16.52-.34 1.04-.54 1.55a2.58 2.58 0 1 0 4.83 1.84c.23-.6.44-1.23.64-1.85a2.58 2.58 0 0 0-1.7-3.23z"/><path id="86i4i" d="M1171.34 200.7a26.69 26.69 0 0 1-6.62-2.1l-.08-.04c-.5-.23-.99-.48-1.46-.74h-.01a26.95 26.95 0 0 1-2.46-45.72l.1-.07a27 27 0 0 1 30.25-.24l-2.02 2.91c-.56.81-.22 1.4.77 1.31l8.76-.78a1.44 1.44 0 0 0 1.3-1.89l-2.35-8.47c-.26-.95-.94-1.06-1.5-.25l-2.02 2.92a31.9 31.9 0 0 0-25.81-4.45h-.02l-.1.03a31.84 31.84 0 0 0-17.65 11.83l-.11.13a32.26 32.26 0 0 0-1.12 1.61l-.07.13a31.8 31.8 0 0 0-5.09 18.76v.07c.03.65.08 1.3.15 1.95l.02.12a31.85 31.85 0 0 0 9.26 19.23c.02 0 .03.02.04.03l.01.01a31.85 31.85 0 0 0 16.92 8.8 2.58 2.58 0 1 0 .91-5.09z"/><path id="86i4j" d="M1175.08 153c-1.15 0-2.08.94-2.08 2.1v20.82l18.96 9.85a2.08 2.08 0 0 0 2.8-.9 2.1 2.1 0 0 0-.89-2.82l-16.7-8.68V155.1c0-1.15-.94-2.09-2.09-2.09z"/><clipPath id="86i4g"><use xlink:href="#86i4a"/></clipPath></defs><g><g transform="translate(-1143 -142)"><use fill="#ccd7dd" xlink:href="#86i4b"/></g><g transform="translate(-1143 -142)"><use fill="#ccd7dd" xlink:href="#86i4c"/></g><g transform="translate(-1143 -142)"><use fill="#ccd7dd" xlink:href="#86i4d"/></g><g transform="translate(-1143 -142)"><use fill="#ccd7dd" xlink:href="#86i4e"/></g><g transform="translate(-1143 -142)"><use fill="#ccd7dd" xlink:href="#86i4f"/></g><g transform="translate(-1143 -142)"/><g clip-path="url(#86i4g)" transform="translate(-1143 -142)"><use fill="#ccd7dd" xlink:href="#86i4h"/></g><g clip-path="url(#86i4g)" transform="translate(-1143 -142)"><use fill="#ccd7dd" xlink:href="#86i4i"/></g><g transform="translate(-1143 -142)"><use fill="#ccd7dd" xlink:href="#86i4j"/></g></g></svg>