<svg xmlns="http://www.w3.org/2000/svg" xmlns:xlink="http://www.w3.org/1999/xlink" width="50" height="30" viewBox="0 0 50 30"><defs><path id="myp3a" d="M350.83 491.07a14.87 14.87 0 0 0-14.82 14.8c0 8.17 6.68 14.8 14.92 14.8 3.86 0 7.39-1.46 10.04-3.86.54-.49 1.05-1.02 1.51-1.58h-3.05c-.41-.5-.78-1-1.11-1.53h5.27c.32-.5.6-1.04.87-1.58h-7.01c-.24-.51-.45-1.03-.63-1.56h8.26a14.62 14.62 0 0 0 .42-7.86h-9.12c.12-.53.26-1.05.43-1.55h8.26c-.18-.55-.4-1.08-.64-1.59h-6.99c.26-.53.54-1.05.86-1.55h5.27c-.35-.56-.74-1.09-1.16-1.59h-2.94c.46-.53.96-1.03 1.5-1.5a14.92 14.92 0 0 0-10.04-3.85h-.1z"/><path id="myp3b" d="M385.86 505.87c0 8.18-6.68 14.8-14.92 14.8a14.86 14.86 0 0 1-14.92-14.79c0-8.18 6.68-14.8 14.91-14.81 8.24 0 14.93 6.62 14.93 14.8z"/><path id="myp3c" d="M385.86 506.04c0 8.17-6.68 14.8-14.92 14.8a14.86 14.86 0 0 1-14.92-14.79c0-8.18 6.68-14.8 14.91-14.81 8.24 0 14.93 6.62 14.93 14.8z"/><path id="myp3d" d="M350.83 491.24a14.87 14.87 0 0 0-14.82 14.8c0 8.17 6.68 14.8 14.92 14.8 3.86 0 7.39-1.46 10.04-3.86.54-.49 1.05-1.02 1.51-1.58h-3.05c-.41-.5-.78-1-1.11-1.53h5.27c.32-.5.6-1.04.87-1.58h-7.01a14.5 14.5 0 0 1-.63-1.56h8.26a14.63 14.63 0 0 0 .42-7.86h-9.12c.12-.53.26-1.05.43-1.55h8.26c-.18-.55-.4-1.08-.64-1.59h-6.99c.26-.53.54-1.05.86-1.55h5.27c-.35-.56-.74-1.09-1.16-1.59h-2.94c.46-.53.96-1.03 1.5-1.5a14.93 14.93 0 0 0-10.04-3.85h-.1z"/><path id="myp3e" d="M356.29 509.8l.2-1.33c-.11 0-.27.04-.41.04-.56 0-.62-.29-.58-.5l.44-2.74h.84l.2-1.48h-.78l.16-.92h-1.6c-.03.03-.93 5.18-.93 5.8 0 .94.52 1.35 1.27 1.34.57 0 1.03-.16 1.19-.2z"/><path id="myp3f" d="M359.57 503.62c1.74 0 2.26 1.27 2.26 2.3 0 .42-.2 1.44-.2 1.44h-3.23s-.3 1.26 1.4 1.26c.8 0 1.7-.39 1.7-.39l-.29 1.52s-.51.26-1.68.26c-1.26 0-2.74-.53-2.74-2.75 0-1.93 1.18-3.64 2.78-3.64zm-1.03 2.5h1.77c0-.09.16-1.09-.73-1.09-.87 0-1.04.98-1.04 1.08z"/><path id="myp3g" d="M369.64 509.8l.28-1.71s-.78.39-1.31.39c-1.13 0-1.58-.86-1.58-1.77 0-1.86.97-2.89 2.05-2.89.8 0 1.46.46 1.46.46l.26-1.67s-.97-.39-1.8-.39c-1.83 0-3.61 1.58-3.61 4.54 0 1.97.96 3.27 2.86 3.27.54 0 1.39-.22 1.39-.22z"/><path id="myp3h" d="M349.73 505.54l-.62 4.34h-1.4l.05-.6c-.02 0-.5.72-1.63.72-.58 0-1.53-.32-1.53-1.7 0-1.75 1.44-2.33 2.82-2.33.21 0 .68.04.68.04s.05-.11.05-.4c0-.48-.43-.54-1.02-.54-1.04 0-1.73.27-1.73.27l.23-1.35s.83-.35 1.92-.35c.56 0 2.18.06 2.18 1.9zm-2.18 1.6c-1.17 0-1.4.51-1.4.95 0 .22.12.59.62.59.95 0 1.15-1.24 1.12-1.5-.04-.01-.07-.04-.34-.04z"/><path id="myp3i" d="M351.22 509.97c.36 0 2.4.09 2.4-2 0-1.96-1.89-1.58-1.89-2.36 0-.4.31-.52.87-.52.23 0 1.09.08 1.09.08l.2-1.4s-.56-.12-1.46-.12c-1.18 0-2.37.46-2.37 2.06 0 1.8 1.99 1.62 1.99 2.38 0 .5-.56.55-.99.55-.74 0-1.4-.25-1.4-.24l-.22 1.37c.04.02.45.2 1.78.2z"/><path id="myp3j" d="M384.39 502.39l-1.22 7.5h-1.54l.07-.57s-.53.66-1.48.66c-1.32 0-1.97-1.26-1.97-2.56 0-2 1.21-3.74 2.67-3.74.93 0 1.53.82 1.53.82l.34-2.1zm-3.2 2.8c-.7 0-1.25.81-1.25 2.04 0 .74.27 1.22.84 1.22.86 0 1.28-1.11 1.28-1.94 0-.92-.3-1.31-.87-1.31z"/><path id="myp3k" d="M338.95 509.9l.97-5.67.14 5.66h1.1l2.04-5.66-.9 5.66h1.62l1.25-7.5h-2.51l-1.57 4.6-.08-4.6h-2.32l-1.27 7.5z"/><path id="myp3l" d="M363.42 509.9c.46-2.61.55-4.73 1.65-4.34.2-1.01.38-1.4.6-1.83 0 0-.1-.02-.31-.02-.71 0-1.24.96-1.24.96l.14-.88h-1.48l-.99 6.1z"/><path id="myp3m" d="M375.48 505.54l-.62 4.34h-1.4l.05-.6c-.02 0-.5.72-1.63.72-.58 0-1.53-.32-1.53-1.7 0-1.75 1.44-2.33 2.82-2.33.21 0 .68.04.68.04s.05-.11.05-.4c0-.48-.43-.54-1.02-.54-1.04 0-1.73.27-1.73.27l.23-1.35s.83-.35 1.92-.35c.56 0 2.18.06 2.18 1.9zm-2.18 1.6c-1.17 0-1.4.51-1.4.95 0 .22.12.59.62.59.96 0 1.15-1.24 1.12-1.5-.04-.01-.07-.04-.34-.04z"/><path id="myp3n" d="M376.76 509.9c.46-2.61.55-4.73 1.65-4.34.2-1.01.38-1.4.6-1.83 0 0-.1-.02-.31-.02-.72 0-1.24.96-1.24.96l.14-.88h-1.48l-.99 6.1z"/></defs><g><g transform="translate(-336 -491)"><use fill="#931b1d" xlink:href="#myp3a"/></g><g transform="translate(-336 -491)"><use fill="#f16622" xlink:href="#myp3b"/></g><g transform="translate(-336 -491)"><use fill="#f7981d" xlink:href="#myp3c"/></g><g transform="translate(-336 -491)"><use fill="#cb2026" xlink:href="#myp3d"/></g><g transform="translate(-336 -491)"><use fill="#fff" xlink:href="#myp3e"/></g><g transform="translate(-336 -491)"><use fill="#fff" xlink:href="#myp3f"/></g><g transform="translate(-336 -491)"><use fill="#fff" xlink:href="#myp3g"/></g><g transform="translate(-336 -491)"><use fill="#fff" xlink:href="#myp3h"/></g><g transform="translate(-336 -491)"><use fill="#fff" xlink:href="#myp3i"/></g><g transform="translate(-336 -491)"><use fill="#fff" xlink:href="#myp3j"/></g><g transform="translate(-336 -491)"><use fill="#fff" xlink:href="#myp3k"/></g><g transform="translate(-336 -491)"><use fill="#fff" xlink:href="#myp3l"/></g><g transform="translate(-336 -491)"><use fill="#fff" xlink:href="#myp3m"/></g><g transform="translate(-336 -491)"><use fill="#fff" xlink:href="#myp3n"/></g></g></svg>