<svg xmlns="http://www.w3.org/2000/svg" xmlns:xlink="http://www.w3.org/1999/xlink" width="66" height="61" viewBox="0 0 66 61"><defs><path id="duhda" d="M798.01 142.11v60.9h64.84v-60.9H798z"/><path id="duhdc" d="M849.06 142.11H811.8a6.75 6.75 0 0 0-6.76 6.74v30.74l-4.27-4.26a1.62 1.62 0 0 0-2.3 2.29l7.06 7.03c.32.31.73.47 1.15.47.42 0 .83-.16 1.15-.47l7.05-7.03a1.62 1.62 0 0 0-2.29-2.28l-4.28 4.27v-30.76c0-1.94 1.57-3.5 3.52-3.5h37.24a3.51 3.51 0 0 1 3.52 3.5v4.48a1.62 1.62 0 0 0 3.26 0v-4.48a6.82 6.82 0 0 0-6.79-6.74z"/><path id="duhdd" d="M853.05 160.47l-7.06 7.03a1.61 1.61 0 1 0 1.15 2.76c.43 0 .84-.16 1.16-.47l4.28-4.28v30.75c0 1.94-1.57 3.5-3.52 3.5H811.8a3.51 3.51 0 0 1-3.52-3.5v-4.49a1.62 1.62 0 1 0-3.25 0v4.49a6.75 6.75 0 0 0 6.76 6.74h37.25a6.75 6.75 0 0 0 6.76-6.74V165.5l4.29 4.28a1.62 1.62 0 0 0 2.29-2.29l-7.06-7.03c-.58-.6-1.66-.6-2.27 0z"/><path id="duhde" d="M830.5 158c-.9 0-1.63.71-1.63 1.59V162h-.21a5.73 5.73 0 0 0-5.66 5.78 5.73 5.73 0 0 0 5.66 5.77h3.67c1.32 0 2.4 1.17 2.4 2.6 0 1.45-1.08 2.61-2.4 2.61h-6.6c-.9 0-1.64.71-1.64 1.59 0 .88.73 1.59 1.64 1.59h3.14v2.46c0 .88.73 1.59 1.64 1.59.9 0 1.63-.71 1.63-1.59v-2.48h.28a5.72 5.72 0 0 0 5.58-5.77 5.72 5.72 0 0 0-5.66-5.77h-3.67c-1.32 0-2.4-1.17-2.4-2.6 0-1.44 1.08-2.61 2.4-2.61h6.48c.9 0 1.64-.71 1.64-1.59 0-.88-.73-1.59-1.64-1.59h-3v-2.42a1.62 1.62 0 0 0-1.64-1.58z"/><clipPath id="duhdb"><use xlink:href="#duhda"/></clipPath></defs><g><g transform="translate(-797 -142)"/><g clip-path="url(#duhdb)" transform="translate(-797 -142)"><use fill="#ccd7dd" xlink:href="#duhdc"/></g><g clip-path="url(#duhdb)" transform="translate(-797 -142)"><use fill="#ccd7dd" xlink:href="#duhdd"/></g><g transform="translate(-797 -142)"><use fill="#ccd7dd" xlink:href="#duhde"/></g></g></svg>