<svg xmlns="http://www.w3.org/2000/svg" xmlns:xlink="http://www.w3.org/1999/xlink" width="50" height="15" viewBox="0 0 50 15"><defs><path id="m584a" d="M354 462l2.3-15h3.7l-2.3 15z"/><path id="m584b" d="M372 447.61c-.8-.3-2.03-.61-3.58-.61-3.96 0-6.74 1.97-6.76 4.8-.02 2.08 1.98 3.25 3.5 3.94 1.56.71 2.08 1.17 2.07 1.8 0 .98-1.24 1.43-2.39 1.43-1.6 0-2.45-.23-3.76-.77l-.52-.23-.56 3.25c.93.41 2.66.76 4.46.78 4.2 0 6.93-1.95 6.96-4.97.01-1.65-1.05-2.9-3.36-3.94-1.4-.68-2.25-1.12-2.24-1.8 0-.6.72-1.25 2.29-1.25 1.3-.02 2.25.26 2.99.55l.36.17z"/><path id="m584c" d="M379.36 447h3.2l3.44 15h-3.93l-.5-2.3h-5.28l-.86 2.3H371l6.2-13.72c.44-.98 1.16-1.28 2.16-1.28zm1.57 9.7l-.97-4.33-.28-1.3c-.21.57-.58 1.48-.55 1.44l-1.67 4.19z"/><path id="m584d" d="M345.84 457.28l-.35-2.05c-.73-2.4-2.97-5-5.49-6.3l3.5 13.07h4.2l6.3-15h-4.2z"/><path id="m584e" d="M336 447v.26c5.08 1.36 8.6 4.8 10 8.74l-1.47-7.6c-.24-1.04-.98-1.36-1.86-1.4z"/></defs><g><g transform="translate(-336 -447)"><use fill="#293688" xlink:href="#m584a"/></g><g transform="translate(-336 -447)"><use fill="#293688" xlink:href="#m584b"/></g><g transform="translate(-336 -447)"><use fill="#293688" xlink:href="#m584c"/></g><g transform="translate(-336 -447)"><use fill="#293688" xlink:href="#m584d"/></g><g transform="translate(-336 -447)"><use fill="#f7981d" xlink:href="#m584e"/></g></g></svg>