<svg xmlns="http://www.w3.org/2000/svg" xmlns:xlink="http://www.w3.org/1999/xlink" viewBox="0 0 16 22"><defs><path id="ohu1a" d="M758.44 494.97l-.01-.05c-1.9-5.97-7.58-10.2-7.82-10.38l-.73-.54.05.9c0 .04.13 3.55-3.27 6.46-3.69 3.17-3.67 5.79-3.66 7.19v.2c0 3.82 2.81 6.68 6.83 7.16a4.83 4.83 0 0 1-.66-.15 2.94 2.94 0 0 1-2.2-2.62l-.04-.26c-.11-1.01-.26-2.26 1.95-4.64.83-.89 1.54-1.84 2.14-2.84l.3-.5.39.43a16.03 16.03 0 0 1 2.67 3.83c.55 1.11.59 2.87.54 3.24a3.89 3.89 0 0 1-3.96 3.58h.05c4.38 0 7.8-3.52 7.8-8 0-1.08-.36-2.93-.37-3z"/></defs><g><g transform="translate(-743 -484)"><use fill="#f66d16" xlink:href="#ohu1a"/></g></g></svg>