<svg xmlns="http://www.w3.org/2000/svg" xmlns:xlink="http://www.w3.org/1999/xlink" width="16" height="17" viewBox="0 0 16 17"><defs><path id="a" d="M3261.7 202.24l-3.67 3.12-1.03-1.24 3.68-3.12zm11.3 1.88l-1.03 1.24-3.68-3.12 1.03-1.24zm-8-1.39c3.98 0 7.2 3.26 7.2 7.29a7.24 7.24 0 0 1-7.2 7.28 7.24 7.24 0 0 1-7.2-7.28 7.24 7.24 0 0 1 7.2-7.29zm0 12.95c3.09 0 5.6-2.53 5.6-5.66a5.64 5.64 0 0 0-5.6-5.67 5.64 5.64 0 0 0-5.6 5.67 5.63 5.63 0 0 0 5.6 5.66zm-2.4-8.9h4.8v1.46l-2.9 3.4h2.9v1.62h-4.8v-1.46l2.9-3.4h-2.9z"/></defs><g transform="translate(-3257 -200)"><use fill="#8b9da6" xlink:href="#a"/></g></svg>