<svg xmlns="http://www.w3.org/2000/svg" xmlns:xlink="http://www.w3.org/1999/xlink" width="32" height="32" viewBox="0 0 32 32"><defs><path id="a" d="M88.2 268h25.6a3.2 3.2 0 0 1 3.2 3.2v19.2a3.2 3.2 0 0 1-3.2 3.2h-9.76l-5.92 5.94c-.32.3-.72.46-1.12.46h-.8a1.6 1.6 0 0 1-1.6-1.6v-4.8h-6.4a3.2 3.2 0 0 1-3.2-3.2v-19.2a3.2 3.2 0 0 1 3.2-3.2zm0 3.2v19.2h9.6v4.93l4.93-4.93h11.07v-19.2zm13.15 4.32c1.18 0 2.12.26 2.8.78a2.54 2.54 0 0 1 .47 3.62c-.37.45-.85.8-1.42 1.06-.33.19-.55.38-.66.6-.11.22-.17.5-.17.85h-2.52c0-.63.13-1.06.37-1.36.26-.3.69-.65 1.34-1.05.33-.18.59-.4.81-.68.17-.27.27-.58.27-.93 0-.38-.11-.65-.34-.87-.22-.22-.56-.32-.95-.32-.34 0-.62.08-.87.26a1 1 0 0 0-.33.79h-2.47a2.2 2.2 0 0 1 .98-2.07 4.7 4.7 0 0 1 2.69-.68zm1.02 8.17v2.51h-2.52v-2.51z"/></defs><g transform="translate(-85 -268)"><use fill="#b0bfc6" xlink:href="#a"/></g></svg>