<svg xmlns="http://www.w3.org/2000/svg" xmlns:xlink="http://www.w3.org/1999/xlink" width="47" height="42" viewBox="0 0 47 42"><defs><path id="lpvfb" d="M219.77 221.31h-30.65a.12.12 0 0 0-.12.12v2.76c0 .06.05.12.12.12h30.65c.06 0 .12-.05.12-.12v-2.76a.11.11 0 0 0-.12-.12z"/><path id="lpvfc" d="M189.12 229.56H205c.06 0 .12-.05.12-.12v-2.76a.12.12 0 0 0-.12-.12h-15.87c-.06 0-.12.05-.12.12v2.76c0 .07.05.12.12.12z"/><path id="lpvfd" d="M219.77 237.06h-30.65a.12.12 0 0 0-.12.12v2.76c0 .06.05.12.12.12h30.65c.06 0 .12-.05.12-.12v-2.76a.11.11 0 0 0-.12-.12z"/><path id="lpvfe" d="M189.12 245.31H205c.06 0 .12-.05.12-.12v-2.76a.12.12 0 0 0-.12-.12h-15.87c-.06 0-.12.05-.12.12v2.76c0 .07.05.12.12.12z"/><path id="lpvff" d="M219.77 252.81h-30.65a.12.12 0 0 0-.12.12v2.76c0 .06.05.12.12.12h30.65c.06 0 .12-.05.12-.12v-2.76a.11.11 0 0 0-.12-.12z"/><path id="lpvfa" d="M173.01 220.06v41.67h30.79v-41.67z"/><path id="lpvfh" d="M204.14 258.38h-15.03a.12.12 0 0 0-.11.12v2.76c0 .06.05.12.11.12h15.03c.06 0 .11-.05.11-.12v-2.76c0-.07-.05-.12-.11-.12z"/><path id="lpvfi" d="M177.95 225.72l-2.42-2.4-2.53 2.48 4.94 4.87 2.53-2.46 5.78-5.67-2.5-2.48z"/><path id="lpvfj" d="M177.95 241.24l-2.42-2.4-2.53 2.48 4.94 4.87 2.53-2.46 5.78-5.67-2.5-2.48z"/><path id="lpvfk" d="M177.95 256.77l-2.42-2.4-2.53 2.48 4.94 4.87 2.53-2.47 5.78-5.66-2.5-2.48z"/><clipPath id="lpvfg"><use xlink:href="#lpvfa"/></clipPath></defs><g><g transform="translate(-173 -220)"><use fill="#b0bfc6" xlink:href="#lpvfb"/></g><g transform="translate(-173 -220)"><use fill="#b0bfc6" xlink:href="#lpvfc"/></g><g transform="translate(-173 -220)"><use fill="#b0bfc6" xlink:href="#lpvfd"/></g><g transform="translate(-173 -220)"><use fill="#b0bfc6" xlink:href="#lpvfe"/></g><g transform="translate(-173 -220)"><use fill="#b0bfc6" xlink:href="#lpvff"/></g><g transform="translate(-173 -220)"/><g clip-path="url(#lpvfg)" transform="translate(-173 -220)"><use fill="#b0bfc6" xlink:href="#lpvfh"/></g><g clip-path="url(#lpvfg)" transform="translate(-173 -220)"><use fill="#b0bfc6" xlink:href="#lpvfi"/></g><g clip-path="url(#lpvfg)" transform="translate(-173 -220)"><use fill="#b0bfc6" xlink:href="#lpvfj"/></g><g clip-path="url(#lpvfg)" transform="translate(-173 -220)"><use fill="#b0bfc6" xlink:href="#lpvfk"/></g></g></svg>