<svg xmlns="http://www.w3.org/2000/svg" xmlns:xlink="http://www.w3.org/1999/xlink" width="19" height="24" viewBox="0 0 19 24"><defs><path id="a" d="M793.37 60.42c.96 0 1.75.72 1.75 1.6v15.72c0 .89-.79 1.6-1.75 1.6h-14.63c-.96 0-1.74-.71-1.74-1.6V62.02c0-.88.78-1.6 1.74-1.6h2.57v-.51c0-.58.51-1.05 1.15-1.05H784a1.84 1.84 0 0 1-.24-.91c0-1.07.95-1.95 2.13-1.95 1.17 0 2.13.88 2.13 1.95 0 .33-.09.65-.25.91h1.89c.63 0 1.15.47 1.15 1.05v.51zm-8.27-1.56h1.58c.29-.23.48-.54.48-.91 0-.64-.57-1.16-1.27-1.16-.7 0-1.27.52-1.27 1.16 0 .37.19.68.48.91zm8.27 4.14c0-.54-.48-.98-1.07-.98h-1.49c0 .43-.38.78-.86.78h-7.79c-.47 0-.86-.35-.86-.78h-1.48c-.6 0-1.08.44-1.08.98v13.79c0 .55.48.98 1.08.98h12.48c.59 0 1.07-.43 1.07-.98z"/><path id="b" d="M783.03 66.38c0 .77-.68 1.39-1.51 1.39-.84 0-1.52-.62-1.52-1.39 0-.76.68-1.38 1.52-1.38.83 0 1.51.62 1.51 1.38z"/><path id="c" d="M791.03 65h-5.17c-.47 0-.86.35-.86.78 0 .44.39.78.86.78h5.17c.48 0 .86-.34.86-.78 0-.43-.38-.78-.86-.78z"/><path id="d" d="M783.03 69.39c0 .76-.68 1.38-1.51 1.38-.84 0-1.52-.62-1.52-1.38 0-.77.68-1.39 1.52-1.39.83 0 1.51.62 1.51 1.39z"/><path id="e" d="M791.03 69h-5.17c-.47 0-.86.36-.86.8 0 .43.39.79.86.79h5.17c.48 0 .86-.36.86-.79 0-.44-.38-.8-.86-.8z"/><path id="f" d="M783.03 74.39c0 .76-.68 1.38-1.51 1.38-.84 0-1.52-.62-1.52-1.38 0-.77.68-1.39 1.52-1.39.83 0 1.51.62 1.51 1.39z"/><path id="g" d="M791.03 73h-5.17c-.47 0-.86.36-.86.8 0 .43.39.8.86.8h5.17c.48 0 .86-.37.86-.8 0-.44-.38-.8-.86-.8z"/></defs><g transform="translate(-777 -56)"><use fill="#b0bfc6" xlink:href="#a"/><use fill="#b0bfc6" xlink:href="#b"/><use fill="#b0bfc6" xlink:href="#c"/><use fill="#b0bfc6" xlink:href="#d"/><g><use fill="#b0bfc6" xlink:href="#e"/></g><g><use fill="#b0bfc6" xlink:href="#f"/></g><g><use fill="#b0bfc6" xlink:href="#g"/></g></g></svg>