<svg xmlns="http://www.w3.org/2000/svg" xmlns:xlink="http://www.w3.org/1999/xlink" width="47" height="42" viewBox="0 0 47 42"><defs><path id="rfq5a" d="M219.77 221.31h-30.65a.12.12 0 0 0-.12.12v2.76c0 .06.05.12.12.12h30.65c.06 0 .12-.05.12-.12v-2.76a.11.11 0 0 0-.12-.12z"/><path id="rfq5b" d="M189.12 229.56H205c.06 0 .12-.05.12-.12v-2.76a.12.12 0 0 0-.12-.12h-15.87c-.06 0-.12.05-.12.12v2.76c0 .07.05.12.12.12z"/><path id="rfq5c" d="M219.77 237.06h-30.65a.12.12 0 0 0-.12.12v2.76c0 .06.05.12.12.12h30.65c.06 0 .12-.05.12-.12v-2.76a.11.11 0 0 0-.12-.12z"/><path id="rfq5d" d="M189.12 245.31H205c.06 0 .12-.05.12-.12v-2.76a.12.12 0 0 0-.12-.12h-15.87c-.06 0-.12.05-.12.12v2.76c0 .07.05.12.12.12z"/><path id="rfq5e" d="M219.77 252.81h-30.65a.12.12 0 0 0-.12.12v2.76c0 .06.05.12.12.12h30.65c.06 0 .12-.05.12-.12v-2.76a.11.11 0 0 0-.12-.12z"/><path id="rfq5f" d="M204.14 258.38h-15.03a.12.12 0 0 0-.11.12v2.76c0 .06.05.12.11.12h15.03c.06 0 .11-.05.11-.12v-2.76c0-.07-.05-.12-.11-.12z"/><path id="rfq5g" d="M177.95 225.72l-2.42-2.4-2.53 2.48 4.94 4.87 2.53-2.46 5.78-5.67-2.5-2.48z"/><path id="rfq5h" d="M177.95 241.24l-2.42-2.4-2.53 2.48 4.94 4.87 2.53-2.46 5.78-5.67-2.5-2.48z"/><path id="rfq5i" d="M177.95 256.77l-2.42-2.4-2.53 2.48 4.94 4.87 2.53-2.47 5.78-5.66-2.5-2.48z"/></defs><g><g transform="translate(-173 -220)"><use fill="#0ecdee" xlink:href="#rfq5a"/></g><g transform="translate(-173 -220)"><use fill="#0ecdee" xlink:href="#rfq5b"/></g><g transform="translate(-173 -220)"><use fill="#0ecdee" xlink:href="#rfq5c"/></g><g transform="translate(-173 -220)"><use fill="#0ecdee" xlink:href="#rfq5d"/></g><g transform="translate(-173 -220)"><use fill="#0ecdee" xlink:href="#rfq5e"/></g><g clip-path="url(#clip-05E24959-9DE0-4FC1-B9C8-72FF484EFC62)" transform="translate(-173 -220)"><use fill="#0ecdee" xlink:href="#rfq5f"/></g><g clip-path="url(#clip-05E24959-9DE0-4FC1-B9C8-72FF484EFC62)" transform="translate(-173 -220)"><use fill="#0ecdee" xlink:href="#rfq5g"/></g><g clip-path="url(#clip-05E24959-9DE0-4FC1-B9C8-72FF484EFC62)" transform="translate(-173 -220)"><use fill="#0ecdee" xlink:href="#rfq5h"/></g><g clip-path="url(#clip-05E24959-9DE0-4FC1-B9C8-72FF484EFC62)" transform="translate(-173 -220)"><use fill="#0ecdee" xlink:href="#rfq5i"/></g></g></svg>