<svg xmlns="http://www.w3.org/2000/svg" width="500" height="500" viewBox="0 0 500 500">
  <title>standard task</title>  
  <g>
    <path d="M102.444,372.51l48.306-47.293H373.932A22.3,22.3,0,0,0,396.2,302.944V151.814a21.7,21.7,0,0,0-7.132-16.191,20.062,20.062,0,0,0-15.446-5.081H112.833a20.062,20.062,0,0,0-15.447,5.081,21.7,21.7,0,0,0-7.131,16.191V367.662a7.06,7.06,0,0,0,12.189,4.848Zm-.189-220.7a9.69,9.69,0,0,1,3.134-7.249,8.193,8.193,0,0,1,5.514-2.113,8.65,8.65,0,0,1,.961.053l.33.037H373.932l.663-.037a8.225,8.225,0,0,1,6.475,2.06,9.69,9.69,0,0,1,3.134,7.249v151.13a10.284,10.284,0,0,1-10.272,10.273H148.726a7.04,7.04,0,0,0-5.135,2.215L102.255,355.9Z"/>
    <path d="M243.229,292.246A65.227,65.227,0,1,0,178,227.02,65.3,65.3,0,0,0,243.229,292.246Zm0-118.453A53.227,53.227,0,1,1,190,227.02,53.287,53.287,0,0,1,243.229,173.793Z" />
    <path d="M234.746,268.176c.319,0,.641-.015.963-.044a10.329,10.329,0,0,0,7.957-4.944L280.39,203.13a6,6,0,0,0-10.239-6.26l-35.615,58.246L209.88,227.5a6,6,0,0,0-8.952,7.991l26.07,29.2A10.313,10.313,0,0,0,234.746,268.176Z"/>
  </g>
</svg>
