<svg xmlns="http://www.w3.org/2000/svg" xmlns:xlink="http://www.w3.org/1999/xlink" viewBox="0 0 20 12"><defs><path id="m5v3a" d="M606.55 974.12h2.57v1.7h-2.57v3.48h3.23v1.7h-5.1v-11.9h5.1v1.7h-3.23zm6.09-1.74h-.04V981h-1.68v-11.9h2.35l1.88 7.12h.04v-7.12h1.66V981h-1.92zm5.56 8.62v-11.9h2.95c1.87 0 2.8 1.04 2.8 2.94v6.02c0 1.9-.93 2.94-2.8 2.94zm2.92-10.2h-1.05v8.5h1.05c.6 0 .95-.3.95-1.16v-6.18c0-.85-.36-1.16-.95-1.16z"/></defs><g><g transform="translate(-604 -969)"><use fill="#92c41e" xlink:href="#m5v3a"/></g></g></svg>