<svg xmlns="http://www.w3.org/2000/svg" xmlns:xlink="http://www.w3.org/1999/xlink" viewBox="0 0 14 17"><defs><path id="idsta" d="M565.25 969.68c.33.33.6 1 .6 1.47v11.28c0 .48-.38.86-.85.86h-12a.86.86 0 0 1-.86-.86v-14.28c0-.48.38-.86.86-.86h9c.47 0 1.13.28 1.46.6zm-2.97-1.18v2.36h2.36c-.05-.15-.13-.3-.2-.36l-1.8-1.8a1.14 1.14 0 0 0-.36-.2zm2.43 13.65V972H562a.86.86 0 0 1-.86-.85v-2.72h-7.86v13.72z"/><path id="idstb" d="M559.51 977.3h-1.6l-.25-5.83h2.1zm-1.91 1.82c0-.14.03-.27.08-.4a.9.9 0 0 1 .22-.31 1.24 1.24 0 0 1 .8-.28 1.1 1.1 0 0 1 .8.28.97.97 0 0 1 .3.7c0 .15-.03.28-.09.4a.9.9 0 0 1-.22.31c-.1.09-.22.16-.35.21-.13.05-.28.08-.44.08-.17 0-.32-.03-.45-.08a1.1 1.1 0 0 1-.35-.2.9.9 0 0 1-.22-.32.97.97 0 0 1-.08-.4z"/></defs><g><g transform="translate(-552 -967)"><use fill="#f53f3f" xlink:href="#idsta"/></g><g transform="translate(-552 -967)"><use fill="#f53f3f" xlink:href="#idstb"/></g></g></svg>